<?xml version="1.0" encoding="UTF-8" standalone="no"?>
<svg
   xmlns:dc="http://purl.org/dc/elements/1.1/"
   xmlns:cc="http://creativecommons.org/ns#"
   xmlns:rdf="http://www.w3.org/1999/02/22-rdf-syntax-ns#"
   xmlns:svg="http://www.w3.org/2000/svg"
   xmlns="http://www.w3.org/2000/svg"
   xmlns:xlink="http://www.w3.org/1999/xlink"
   xmlns:sodipodi="http://sodipodi.sourceforge.net/DTD/sodipodi-0.dtd"
   xmlns:inkscape="http://www.inkscape.org/namespaces/inkscape"
   id="svg2"
   viewBox="0 0 128 128"
   version="1.1"
   inkscape:version="0.48.4 r9939"
   width="100%"
   height="100%"
   sodipodi:docname="digital_clock_oc.svg"
   inkscape:export-filename="D:\git\lucifer\TabletClock\res\drawable\ic_launcher.png"
   inkscape:export-xdpi="101.25"
   inkscape:export-ydpi="101.25">
  <sodipodi:namedview
     pagecolor="#ffffff"
     bordercolor="#666666"
     borderopacity="1"
     objecttolerance="10"
     gridtolerance="10"
     guidetolerance="10"
     inkscape:pageopacity="0"
     inkscape:pageshadow="2"
     inkscape:window-width="1236"
     inkscape:window-height="733"
     id="namedview78"
     showgrid="false"
     inkscape:zoom="2.1249327"
     inkscape:cx="24.70249"
     inkscape:cy="128.00927"
     inkscape:window-x="0"
     inkscape:window-y="0"
     inkscape:window-maximized="0"
     inkscape:current-layer="svg2" />
  <defs
     id="defs6">
    <linearGradient
       id="linearGradient3980">
      <stop
         id="stop3982"
         stop-color="#fff"
         offset="0" />
      <stop
         id="stop3984"
         stop-color="#fff"
         stop-opacity="0"
         offset="1" />
    </linearGradient>
    <linearGradient
       id="linearGradient4108"
       x1="209.67"
       xlink:href="#linearGradient3980"
       gradientUnits="userSpaceOnUse"
       x2="209.67"
       y1="-21.334999"
       y2="88.338997" />
    <filter
       id="filter4146"
       width="1.0811"
       y="-0.11938"
       x="-0.040569"
       height="1.2388"
       color-interpolation-filters="sRGB">
      <feGaussianBlur
         id="feGaussianBlur4148"
         stdDeviation="7.7723234" />
    </filter>
    <linearGradient
       id="linearGradient4151"
       x1="209.67"
       xlink:href="#linearGradient3980"
       gradientUnits="userSpaceOnUse"
       y1="-21.334999"
       gradientTransform="matrix(0.26635413,0,0,0.26635413,2.1021697,34.645869)"
       x2="209.67"
       y2="88.338997" />
  </defs>
  <rect
     style="opacity:0.78151;stroke:#313100;stroke-width:3;stroke-linecap:round;stroke-linejoin:round;filter:url(#filter4146)"
     x="1.796"
     y="1.7469"
     width="459.78"
     height="156.25"
     ry="17.062"
     rx="17.062"
     id="rect4044"
     transform="matrix(0.26635413,0,0,-0.12543948,2.1021697,96.33828)" />
  <path
     style="opacity:0.78151;fill:#1a1a1a;filter:url(#filter4146)"
     inkscape:connector-curvature="0"
     d="m 40.241,82.499 -2.615,-3.1078 3.5942,-3.2938 3.5942,-3.2939 h 45.656 l 2.9236,3.0516 2.9236,3.0516 -3.9865,3.4365 -3.9865,3.4365 -22.744,-0.0864 -22.744,-0.0865 z"
     id="path4046"
     transform="matrix(0.26635413,0,0,-0.12543948,2.1021697,96.33828)" />
  <path
     style="opacity:0.78151;fill:#1a1a1a;filter:url(#filter4146)"
     inkscape:connector-curvature="0"
     d="m 48.997,29.516 -2.615,-3.1078 3.5942,-3.2938 3.5942,-3.2939 h 45.656 l 2.9236,3.0516 2.9236,3.0516 -3.9865,3.4365 -3.9865,3.4365 -22.744,-0.0864 -22.744,-0.0865 z"
     id="path4048"
     transform="matrix(0.26635413,0,0,-0.12543948,2.1021697,96.33828)" />
  <path
     style="opacity:0.78151;fill:#1a1a1a;filter:url(#filter4146)"
     inkscape:connector-curvature="0"
     d="m 30.303,135.66 -2.615,-3.1078 3.5942,-3.2938 3.5942,-3.2939 h 45.656 l 2.9236,3.0516 2.9236,3.0516 -3.9865,3.4365 -3.9865,3.4365 -22.744,-0.0864 -22.744,-0.0865 z"
     id="path4050"
     transform="matrix(0.26635413,0,0,-0.12543948,2.1021697,96.33828)" />
  <path
     style="opacity:0.78151000000000004;fill:#00c23b;filter:url(#filter4146);fill-opacity:1"
     inkscape:connector-curvature="0"
     d="m 95.663,73.945 2.4772,2.5733 3.6466,-2.4733 3.6466,-2.4732 3.6616,-18.649 3.6616,-18.649 c -1.6909,-2.1509 -3.5981,-4.1039 -5.4802,-6.084 -2.5616,1.8491 -4.3936,4.1472 -6.9553,5.9964 l -3.5677,18.593 -3.5676,18.593 z"
     id="path4052"
     transform="matrix(0.26635413,0,0,-0.12543948,2.1021697,96.33828)" />
  <path
     style="opacity:0.78151;fill:#1a1a1a;filter:url(#filter4146)"
     inkscape:connector-curvature="0"
     d="m 31.54,74.119 3.1507,3.1346 c 2.431,-1.6488 4.1886,-3.8589 6.6196,-5.5078 l 3.6616,-18.649 3.6616,-18.649 -2.3753,-2.8175 -2.3753,-2.8175 -3.8424,2.7737 -3.8425,2.7737 -3.5677,18.593 -3.5676,18.593 z"
     id="path4054"
     transform="matrix(0.26635413,0,0,-0.12543948,2.1021697,96.33828)" />
  <path
     style="opacity:0.78151;fill:#1a1a1a;filter:url(#filter4146)"
     inkscape:connector-curvature="0"
     d="m 23.009,127.1 2.9262,3.0223 c 2.431,-1.6488 4.4131,-3.7467 6.8441,-5.3955 l 3.6616,-18.649 3.6616,-18.649 -2.3753,-2.8175 -2.3753,-2.8175 -3.8424,2.7737 -3.8425,2.7737 -3.5677,18.593 -3.5676,18.593 z"
     id="path4056"
     transform="matrix(0.26635413,0,0,-0.12543948,2.1021697,96.33828)" />
  <path
     style="opacity:0.78151000000000004;fill:#00c23b;filter:url(#filter4146);fill-opacity:1"
     inkscape:connector-curvature="0"
     d="m 86.094,127.55 2.4772,2.5733 3.6466,-2.4733 3.6466,-2.4732 3.6616,-18.649 3.6616,-18.649 c -1.7452,-2.1556 -3.6213,-4.1959 -5.4802,-6.2524 -2.5616,1.8491 -4.2814,3.8666 -6.9553,6.1647 l -3.5677,18.593 -3.5676,18.593 z"
     id="path4058"
     transform="matrix(0.26635413,0,0,-0.12543948,2.1021697,96.33828)" />
  <path
     style="opacity:0.78151000000000004;fill:#00c23b;filter:url(#filter4146);fill-opacity:1"
     inkscape:connector-curvature="0"
     d="m 146.21,82.499 -2.615,-3.1078 3.5942,-3.2938 3.5942,-3.2939 h 45.656 l 2.9236,3.0516 2.9236,3.0516 -3.9865,3.4365 -3.9865,3.4365 -22.744,-0.0864 -22.744,-0.0865 z"
     id="path4060"
     transform="matrix(0.26635413,0,0,-0.12543948,2.1021697,96.33828)" />
  <path
     style="opacity:0.78151000000000004;fill:#00c23b;filter:url(#filter4146);fill-opacity:1"
     inkscape:connector-curvature="0"
     d="m 154.96,29.516 -2.615,-3.1078 3.5942,-3.2938 3.5942,-3.2939 h 45.656 l 2.9236,3.0516 2.9236,3.0516 -3.9865,3.4365 -3.9865,3.4365 -22.744,-0.0864 -22.744,-0.0865 z"
     id="path4062"
     transform="matrix(0.26635413,0,0,-0.12543948,2.1021697,96.33828)" />
  <path
     style="opacity:0.78151000000000004;fill:#00c23b;filter:url(#filter4146);fill-opacity:1"
     inkscape:connector-curvature="0"
     d="m 136.27,135.66 -2.615,-3.1078 3.5942,-3.2938 3.5942,-3.2939 h 45.656 l 2.9236,3.0516 2.9236,3.0516 -3.9865,3.4365 -3.9865,3.4365 -22.744,-0.0864 -22.744,-0.0865 z"
     id="path4064"
     transform="matrix(0.26635413,0,0,-0.12543948,2.1021697,96.33828)" />
  <path
     style="opacity:0.78151;fill:#00c23b;filter:url(#filter4146)"
     inkscape:connector-curvature="0"
     d="m 201.63,73.945 2.4772,2.5733 3.6466,-2.4733 3.6466,-2.4732 3.6616,-18.649 3.6616,-18.649 c -1.6909,-2.1509 -3.5981,-4.1039 -5.4802,-6.084 -2.5616,1.8491 -4.3936,4.1472 -6.9553,5.9964 l -3.5677,18.593 -3.5676,18.593 z"
     id="path4066"
     transform="matrix(0.26635413,0,0,-0.12543948,2.1021697,96.33828)" />
  <path
     style="opacity:0.78151;fill:#1a1a1a;filter:url(#filter4146)"
     inkscape:connector-curvature="0"
     d="m 137.51,74.119 3.1507,3.1346 c 2.431,-1.6488 4.1886,-3.8589 6.6196,-5.5078 l 3.6616,-18.649 3.6616,-18.649 -2.3753,-2.8175 -2.3753,-2.8175 -3.8424,2.7737 -3.8424,2.7737 -3.5677,18.593 -3.5676,18.593 z"
     id="path4068"
     transform="matrix(0.26635413,0,0,-0.12543948,2.1021697,96.33828)" />
  <path
     style="opacity:0.78151000000000004;fill:#00c23b;filter:url(#filter4146);fill-opacity:1"
     inkscape:connector-curvature="0"
     d="m 128.97,127.1 2.9262,3.0223 c 2.431,-1.6488 4.4131,-3.7467 6.8441,-5.3955 l 3.6616,-18.649 3.6616,-18.649 -2.3753,-2.8175 -2.3753,-2.8175 -3.8424,2.7737 -3.8424,2.7737 -3.5677,18.593 -3.5676,18.593 z"
     id="path4070"
     transform="matrix(0.26635413,0,0,-0.12543948,2.1021697,96.33828)" />
  <path
     style="opacity:0.78151000000000004;fill:#1a1a1a;filter:url(#filter4146);fill-opacity:1"
     inkscape:connector-curvature="0"
     d="m 192.06,127.55 2.4772,2.5733 3.6466,-2.4733 3.6466,-2.4732 3.6616,-18.649 3.6616,-18.649 c -1.7452,-2.1556 -3.6213,-4.1959 -5.4802,-6.2524 -2.5616,1.8491 -4.2814,3.8666 -6.9553,6.1647 l -3.5676,18.593 -3.5676,18.593 z"
     id="path4072"
     transform="matrix(0.26635413,0,0,-0.12543948,2.1021697,96.33828)" />
  <path
     style="opacity:0.78151;fill:#00c23b;filter:url(#filter4146)"
     inkscape:connector-curvature="0"
     d="m 262.95,82.499 -2.615,-3.1078 3.5942,-3.2938 3.5942,-3.2939 h 45.656 l 2.9236,3.0516 2.9236,3.0516 -3.9865,3.4365 -3.9865,3.4365 -22.744,-0.0864 -22.744,-0.0865 z"
     id="path4074"
     transform="matrix(0.26635413,0,0,-0.12543948,2.1021697,96.33828)" />
  <path
     style="opacity:0.78151;fill:#00c23b;filter:url(#filter4146)"
     inkscape:connector-curvature="0"
     d="m 271.7,29.516 -2.615,-3.1078 3.5942,-3.2938 3.5942,-3.2939 h 45.656 l 2.9236,3.0516 2.9236,3.0516 -3.9865,3.4365 -3.9865,3.4365 -22.744,-0.0864 -22.744,-0.0865 z"
     id="path4076"
     transform="matrix(0.26635413,0,0,-0.12543948,2.1021697,96.33828)" />
  <path
     style="opacity:0.78151;fill:#00c23b;filter:url(#filter4146)"
     inkscape:connector-curvature="0"
     d="m 253.01,135.66 -2.615,-3.1078 3.5942,-3.2938 3.5942,-3.2939 h 45.656 l 2.9236,3.0516 2.9236,3.0516 -3.9865,3.4365 -3.9865,3.4365 -22.744,-0.0864 -22.744,-0.0865 z"
     id="path4078"
     transform="matrix(0.26635413,0,0,-0.12543948,2.1021697,96.33828)" />
  <path
     style="opacity:0.78151;fill:#00c23b;filter:url(#filter4146)"
     inkscape:connector-curvature="0"
     d="m 318.37,73.945 2.4772,2.5733 3.6466,-2.4733 3.6466,-2.4732 3.6616,-18.649 3.6616,-18.649 c -1.6909,-2.1509 -3.5981,-4.1039 -5.4802,-6.084 -2.5616,1.8491 -4.3936,4.1472 -6.9553,5.9964 l -3.5677,18.593 -3.5676,18.593 z"
     id="path4080"
     transform="matrix(0.26635413,0,0,-0.12543948,2.1021697,96.33828)" />
  <path
     style="opacity:0.78151;fill:#1a1a1a;filter:url(#filter4146)"
     inkscape:connector-curvature="0"
     d="m 254.25,74.119 3.1507,3.1346 c 2.431,-1.6488 4.1886,-3.8589 6.6196,-5.5078 l 3.6616,-18.649 3.6616,-18.649 -2.3753,-2.8175 -2.3753,-2.8175 -3.8424,2.7737 -3.8424,2.7737 -3.5677,18.593 -3.5676,18.593 z"
     id="path4082"
     transform="matrix(0.26635413,0,0,-0.12543948,2.1021697,96.33828)" />
  <path
     style="opacity:0.78151;fill:#00c23b;filter:url(#filter4146)"
     inkscape:connector-curvature="0"
     d="m 245.71,127.1 2.9262,3.0223 c 2.431,-1.6488 4.4131,-3.7467 6.8441,-5.3955 l 3.6616,-18.649 3.6616,-18.649 -2.3753,-2.8175 -2.3753,-2.8175 -3.8424,2.7737 -3.8424,2.7737 -3.5677,18.593 -3.5676,18.593 z"
     id="path4084"
     transform="matrix(0.26635413,0,0,-0.12543948,2.1021697,96.33828)" />
  <path
     style="opacity:0.78151;fill:#1a1a1a;filter:url(#filter4146)"
     inkscape:connector-curvature="0"
     d="m 308.8,127.55 2.4772,2.5733 3.6466,-2.4733 3.6466,-2.4732 3.6616,-18.649 3.6616,-18.649 c -1.7452,-2.1556 -3.6213,-4.1959 -5.4802,-6.2524 -2.5616,1.8491 -4.2814,3.8666 -6.9553,6.1647 l -3.5676,18.593 -3.5676,18.593 z"
     id="path4086"
     transform="matrix(0.26635413,0,0,-0.12543948,2.1021697,96.33828)" />
  <path
     style="opacity:0.78151;fill:#1a1a1a;filter:url(#filter4146)"
     inkscape:connector-curvature="0"
     d="m 368.46,82.499 -2.615,-3.1078 3.5942,-3.2938 3.5942,-3.2939 h 45.656 l 2.9236,3.0516 2.9236,3.0516 -3.9865,3.4365 -3.9865,3.4365 -22.744,-0.0864 -22.744,-0.0865 z"
     id="path4088"
     transform="matrix(0.26635413,0,0,-0.12543948,2.1021697,96.33828)" />
  <path
     style="opacity:0.78151;fill:#00c23b;filter:url(#filter4146)"
     inkscape:connector-curvature="0"
     d="m 377.22,29.516 -2.615,-3.1078 3.5942,-3.2938 3.5942,-3.2939 h 45.656 l 2.9236,3.0516 2.9236,3.0516 -3.9865,3.4365 -3.9865,3.4365 -22.744,-0.0864 -22.744,-0.0865 z"
     id="path4090"
     transform="matrix(0.26635413,0,0,-0.12543948,2.1021697,96.33828)" />
  <path
     style="opacity:0.78151;fill:#00c23b;filter:url(#filter4146)"
     inkscape:connector-curvature="0"
     d="m 358.52,135.66 -2.615,-3.1078 3.5942,-3.2938 3.5942,-3.2939 h 45.656 l 2.9236,3.0516 2.9236,3.0516 -3.9865,3.4365 -3.9865,3.4365 -22.744,-0.0864 -22.744,-0.0865 z"
     id="path4092"
     transform="matrix(0.26635413,0,0,-0.12543948,2.1021697,96.33828)" />
  <path
     style="opacity:0.78151;fill:#00c23b;filter:url(#filter4146)"
     inkscape:connector-curvature="0"
     d="m 423.88,73.945 2.4772,2.5733 3.6466,-2.4733 3.6466,-2.4732 3.6616,-18.649 3.6616,-18.649 c -1.6909,-2.1509 -3.5981,-4.1039 -5.4802,-6.084 -2.5616,1.8491 -4.3936,4.1472 -6.9553,5.9964 l -3.5677,18.593 -3.5676,18.593 z"
     id="path4094"
     transform="matrix(0.26635413,0,0,-0.12543948,2.1021697,96.33828)" />
  <path
     style="opacity:0.78151;fill:#00c23b;filter:url(#filter4146)"
     inkscape:connector-curvature="0"
     d="m 359.76,74.119 3.1507,3.1346 c 2.431,-1.6488 4.1886,-3.8589 6.6196,-5.5078 l 3.6616,-18.649 3.6616,-18.649 -2.3753,-2.8175 -2.3753,-2.8175 -3.8424,2.7737 -3.8424,2.7737 -3.5677,18.593 -3.5676,18.593 z"
     id="path4096"
     transform="matrix(0.26635413,0,0,-0.12543948,2.1021697,96.33828)" />
  <path
     style="opacity:0.78151;fill:#00c23b;filter:url(#filter4146)"
     inkscape:connector-curvature="0"
     d="m 351.23,127.1 2.9262,3.0223 c 2.431,-1.6488 4.4131,-3.7467 6.8441,-5.3955 l 3.6616,-18.649 3.6616,-18.649 -2.3753,-2.8175 -2.3753,-2.8175 -3.8424,2.7737 -3.8424,2.7737 -3.5677,18.593 -3.5676,18.593 z"
     id="path4098"
     transform="matrix(0.26635413,0,0,-0.12543948,2.1021697,96.33828)" />
  <path
     style="opacity:0.78151;fill:#00c23b;filter:url(#filter4146)"
     inkscape:connector-curvature="0"
     d="m 414.32,127.55 2.4772,2.5733 3.6466,-2.4733 3.6466,-2.4732 3.6616,-18.649 3.6616,-18.649 c -1.7452,-2.1556 -3.6213,-4.1959 -5.4802,-6.2524 -2.5616,1.8491 -4.2814,3.8666 -6.9553,6.1647 l -3.5676,18.593 -3.5676,18.593 z"
     id="path4100"
     transform="matrix(0.26635413,0,0,-0.12543948,2.1021697,96.33828)" />
  <path
     style="opacity:0.78151;fill:#00c23b;filter:url(#filter4146)"
     inkscape:connector-curvature="0"
     d="m 250.54,-110.5 a 6.735,6.735 0 1 1 -13.47,0 6.735,6.735 0 1 1 13.47,0 z"
     transform="matrix(0.26635413,0,0,-0.12543948,-0.5613716,75.766205)"
     id="path4102" />
  <path
     style="opacity:0.78151;fill:#00c23b;filter:url(#filter4146)"
     inkscape:connector-curvature="0"
     d="m 250.54,-110.5 a 6.735,6.735 0 1 1 -13.47,0 6.735,6.735 0 1 1 13.47,0 z"
     transform="matrix(0.26635413,0,0,-0.12543948,-2.4748597,69.176869)"
     id="path4104" />
  <path
     style="opacity:0.48598196;fill:url(#linearGradient4108);filter:url(#filter4146)"
     inkscape:connector-curvature="0"
     d="M 18.844,1.75 C 9.3916,1.75 1.782,9.3601 1.782,18.812 v 23.969 c 0,0 158.09,31.769 235.22,34.219 77.127,2.45 224.56,-18.219 224.56,-18.219 V 18.812 c 0,-9.4519 -7.61,-17.062 -17.06,-17.062 z"
     id="path4106"
     transform="matrix(0.26635413,0,0,-0.12543948,2.1021697,96.33828)" />
  <rect
     id="rect3955"
     rx="4.5445342"
     ry="4.5445342"
     height="41.617832"
     width="122.46431"
     y="35.111195"
     x="2.5805421"
     style="stroke:#222222;stroke-width:0.79906237;stroke-linecap:round;stroke-linejoin:round" />
  <path
     id="path3759"
     d="m 12.820526,56.619819 -0.696516,-0.827775 0.95733,-0.877317 0.957331,-0.877344 h 12.160664 l 0.778713,0.812806 0.778712,0.812806 -1.06182,0.915326 -1.061821,0.915327 -6.057958,-0.02301 -6.057959,-0.02304 z"
     inkscape:connector-curvature="0"
     style="fill:#1a1a1a" />
  <path
     id="path3763"
     d="m 15.152723,42.507842 -0.696516,-0.827774 0.957331,-0.87732 0.957329,-0.877339 h 12.160664 l 0.778713,0.812802 0.778714,0.812811 -1.061821,0.915325 -1.061822,0.915324 -6.057958,-0.02298 -6.057958,-0.02308 z"
     inkscape:connector-curvature="0"
     style="fill:#1a1a1a" />
  <path
     id="path3759-6"
     d="m 10.173499,70.778939 -0.6965161,-0.827776 0.9573311,-0.877317 0.957329,-0.877344 h 12.160664 l 0.778713,0.812806 0.778713,0.812807 -1.06182,0.915326 -1.061822,0.915325 -6.057958,-0.02301 -6.057958,-0.02304 z"
     inkscape:connector-curvature="0"
     style="fill:#1a1a1a" />
  <path
     id="path3759-1"
     d="m 27.582405,54.341426 0.659813,0.68541 0.971287,-0.658775 0.971287,-0.658747 0.975281,-4.967235 0.975283,-4.96724 c -0.450378,-0.572903 -0.958369,-1.09309 -1.459674,-1.620502 -0.682293,0.49252 -1.170253,1.104631 -1.852573,1.59717 l -0.950272,4.952325 -0.950244,4.952318 z"
     inkscape:connector-curvature="0"
     style="fill:#00c23b;fill-opacity:1" />
  <path
     id="path3759-1-4"
     d="m 10.502979,54.388038 0.839202,0.834913 c 0.647507,-0.439164 1.115651,-1.027833 1.763158,-1.467024 l 0.975282,-4.967241 0.975283,-4.96724 -0.632671,-0.750446 -0.632672,-0.750456 -1.023438,0.738789 -1.023466,0.738781 -0.950272,4.952325 -0.9502449,4.952324 z"
     inkscape:connector-curvature="0"
     style="fill:#1a1a1a" />
  <path
     id="path3759-1-2"
     d="m 8.2307116,68.498947 0.7794061,0.805002 c 0.6475069,-0.439165 1.1754473,-0.997948 1.8229543,-1.437113 l 0.975282,-4.967238 0.975283,-4.967239 -0.632672,-0.750452 -0.632671,-0.750453 -1.023439,0.738787 -1.0234657,0.738785 -0.9502714,4.952323 -0.9502453,4.952323 z"
     inkscape:connector-curvature="0"
     style="fill:#1a1a1a" />
  <path
     id="path3759-1-7"
     d="m 25.033396,68.618806 0.659812,0.68541 0.971287,-0.658774 0.971287,-0.658747 0.975283,-4.967238 0.975282,-4.967238 c -0.464841,-0.574153 -0.964548,-1.117595 -1.459674,-1.665353 -0.682293,0.492515 -1.140369,1.029885 -1.852573,1.641993 l -0.950245,4.952322 -0.950245,4.952322 z"
     inkscape:connector-curvature="0"
     style="fill:#00c23b;fill-opacity:1" />
  <path
     id="path3854"
     d="m 41.043942,56.619819 -0.696516,-0.827775 0.957331,-0.877317 0.95733,-0.877344 h 12.160664 l 0.778713,0.812806 0.778713,0.812806 -1.061821,0.915326 -1.061821,0.915327 -6.057958,-0.02301 -6.057958,-0.02304 z"
     inkscape:connector-curvature="0"
     style="fill:#00c23b;fill-opacity:1" />
  <path
     id="path3856"
     d="m 43.377204,42.507842 -0.696515,-0.827774 0.95733,-0.87732 0.95733,-0.877339 h 12.160664 l 0.778713,0.812802 0.778713,0.812811 -1.061821,0.915325 -1.061821,0.915324 -6.057958,-0.02298 -6.057958,-0.02308 z"
     inkscape:connector-curvature="0"
     style="fill:#00c23b;fill-opacity:1" />
  <path
     id="path3858"
     d="m 38.396382,70.778939 -0.696515,-0.827776 0.957329,-0.877317 0.957331,-0.877344 h 12.160664 l 0.778713,0.812806 0.778712,0.812807 -1.06182,0.915326 -1.061821,0.915325 -6.057958,-0.02301 -6.057959,-0.02304 z"
     inkscape:connector-curvature="0"
     style="fill:#00c23b;fill-opacity:1" />
  <path
     id="path3860"
     d="m 55.805289,54.341426 0.659811,0.68541 0.971288,-0.658775 0.971287,-0.658747 0.975282,-4.967235 0.975283,-4.96724 c -0.450379,-0.572903 -0.958369,-1.09309 -1.459674,-1.620502 -0.682293,0.49252 -1.170253,1.104631 -1.852573,1.59717 l -0.950272,4.952325 -0.950245,4.952318 z"
     inkscape:connector-curvature="0"
     style="fill:#00c23b" />
  <path
     id="path3862"
     d="m 38.726662,54.388038 0.839201,0.834913 c 0.647508,-0.439164 1.115651,-1.027833 1.763159,-1.467024 l 0.975281,-4.967241 0.975283,-4.96724 -0.632671,-0.750446 -0.632671,-0.750456 -1.023439,0.738789 -1.023439,0.738781 -0.950272,4.952325 -0.950245,4.952324 z"
     inkscape:connector-curvature="0"
     style="fill:#1a1a1a" />
  <path
     id="path3864"
     d="m 36.454661,68.498947 0.779406,0.805002 c 0.647506,-0.439165 1.175447,-0.997948 1.822954,-1.437113 l 0.975282,-4.967238 0.975282,-4.967239 -0.632671,-0.750452 -0.63267,-0.750453 -1.02344,0.738787 -1.023439,0.738785 -0.950271,4.952323 -0.950245,4.952323 z"
     inkscape:connector-curvature="0"
     style="fill:#00c23b;fill-opacity:1" />
  <path
     id="path3866"
     d="m 53.258943,68.618806 0.659813,0.68541 0.971287,-0.658774 0.971286,-0.658747 0.975282,-4.967238 0.975283,-4.967238 c -0.464841,-0.574153 -0.964548,-1.117595 -1.459674,-1.665353 -0.682293,0.492515 -1.140368,1.029885 -1.852573,1.641993 l -0.950244,4.952322 -0.950246,4.952322 z"
     inkscape:connector-curvature="0"
     style="fill:#1a1a1a;fill-opacity:1" />
  <path
     id="path3870"
     d="m 72.138124,56.619819 -0.696516,-0.827775 0.95733,-0.877317 0.957329,-0.877344 h 12.160664 l 0.778714,0.812806 0.778713,0.812806 -1.061821,0.915326 -1.06182,0.915327 -6.057959,-0.02301 -6.057959,-0.02304 z"
     inkscape:connector-curvature="0"
     style="fill:#00c23b" />
  <path
     id="path3872"
     d="m 74.471386,42.507842 -0.696516,-0.827774 0.95733,-0.87732 0.957329,-0.877339 h 12.160664 l 0.778714,0.812802 0.778713,0.812811 -1.061821,0.915325 -1.06182,0.915324 -6.057959,-0.02298 -6.057958,-0.02308 z"
     inkscape:connector-curvature="0"
     style="fill:#00c23b" />
  <path
     id="path3874"
     d="m 69.493228,70.778939 -0.696517,-0.827776 0.95733,-0.877317 0.95733,-0.877344 h 12.160664 l 0.778713,0.812806 0.778713,0.812807 -1.061821,0.915326 -1.061821,0.915325 -6.057958,-0.02301 -6.057958,-0.02304 z"
     inkscape:connector-curvature="0"
     style="fill:#00c23b" />
  <path
     id="path3876"
     d="m 86.902133,54.341426 0.659813,0.68541 0.971287,-0.658775 0.971286,-0.658747 0.975283,-4.967235 0.975282,-4.96724 c -0.450378,-0.572903 -0.958369,-1.09309 -1.459674,-1.620502 -0.682293,0.49252 -1.170253,1.104631 -1.852573,1.59717 l -0.950272,4.952325 -0.950245,4.952318 z"
     inkscape:connector-curvature="0"
     style="fill:#00c23b" />
  <path
     id="path3878"
     d="m 69.820842,54.388038 0.839203,0.834913 c 0.647506,-0.439164 1.115651,-1.027833 1.763157,-1.467024 l 0.975283,-4.967241 0.975282,-4.96724 -0.632671,-0.750446 -0.632671,-0.750456 -1.023439,0.738789 -1.023439,0.738781 -0.950272,4.952325 -0.950244,4.952324 z"
     inkscape:connector-curvature="0"
     style="fill:#1a1a1a" />
  <path
     id="path3880"
     d="m 67.548842,68.498947 0.779405,0.805002 c 0.647508,-0.439165 1.175448,-0.997948 1.822955,-1.437113 l 0.975282,-4.967238 0.975283,-4.967239 -0.632672,-0.750452 -0.632671,-0.750453 -1.023439,0.738787 -1.023439,0.738785 -0.950272,4.952323 -0.950244,4.952323 z"
     inkscape:connector-curvature="0"
     style="fill:#00c23b" />
  <path
     id="path3882"
     d="m 84.353124,68.618806 0.659812,0.68541 0.971287,-0.658774 0.971287,-0.658747 0.975283,-4.967238 0.975282,-4.967238 c -0.464841,-0.574153 -0.964548,-1.117595 -1.459674,-1.665353 -0.682292,0.492515 -1.140369,1.029885 -1.852573,1.641993 l -0.950245,4.952322 -0.950244,4.952322 z"
     inkscape:connector-curvature="0"
     style="fill:#1a1a1a" />
  <path
     id="path3886"
     d="m 100.24382,56.619819 -0.69652,-0.827775 0.95732,-0.877317 0.95734,-0.877344 h 12.16066 l 0.77872,0.812806 0.77871,0.812806 -1.06182,0.915326 -1.06182,0.915327 -6.05796,-0.02301 -6.05796,-0.02304 z"
     inkscape:connector-curvature="0"
     style="fill:#1a1a1a" />
  <path
     id="path3888"
     d="m 102.57442,42.507842 -0.69652,-0.827774 0.95733,-0.87732 0.95733,-0.877339 h 12.16066 l 0.77871,0.812802 0.77872,0.812811 -1.06183,0.915325 -1.06181,0.915324 -6.05797,-0.02298 -6.05795,-0.02308 z"
     inkscape:connector-curvature="0"
     style="fill:#00c23b" />
  <path
     id="path3890"
     d="m 97.596256,70.778939 -0.696518,-0.827776 0.957334,-0.877317 0.957325,-0.877344 h 12.160663 l 0.77871,0.812806 0.77872,0.812807 -1.06183,0.915326 -1.06181,0.915325 -6.05797,-0.02301 -6.057951,-0.02304 z"
     inkscape:connector-curvature="0"
     style="fill:#00c23b" />
  <path
     id="path3892"
     d="m 115.00516,54.341426 0.65981,0.68541 0.97129,-0.658775 0.97129,-0.658747 0.97528,-4.967235 0.97529,-4.96724 c -0.45039,-0.572903 -0.95838,-1.09309 -1.45968,-1.620502 -0.68229,0.49252 -1.17026,1.104631 -1.85258,1.59717 l -0.95027,4.952325 -0.95025,4.952318 z"
     inkscape:connector-curvature="0"
     style="fill:#00c23b" />
  <path
     id="path3894"
     d="m 97.926536,54.388038 0.839198,0.834913 c 0.647507,-0.439164 1.115647,-1.027833 1.763166,-1.467024 l 0.97527,-4.967241 0.97529,-4.96724 -0.63267,-0.750446 -0.63267,-0.750456 -1.02344,0.738789 -1.023447,0.738781 -0.950265,4.952325 -0.950245,4.952324 z"
     inkscape:connector-curvature="0"
     style="fill:#00c23b" />
  <path
     id="path3896"
     d="m 95.654529,68.498947 0.779403,0.805002 c 0.647509,-0.439165 1.175455,-0.997948 1.822961,-1.437113 l 0.975285,-4.967238 0.975272,-4.967239 -0.632667,-0.750452 -0.632669,-0.750453 -1.023443,0.738787 -1.023433,0.738785 -0.950277,4.952323 -0.950245,4.952323 z"
     inkscape:connector-curvature="0"
     style="fill:#00c23b" />
  <path
     id="path3898"
     d="m 112.45615,68.618806 0.65981,0.68541 0.97129,-0.658774 0.97129,-0.658747 0.97528,-4.967238 0.97528,-4.967238 c -0.46484,-0.574153 -0.96455,-1.117595 -1.45967,-1.665353 -0.68229,0.492515 -1.14037,1.029885 -1.85257,1.641993 l -0.95025,4.952322 -0.95024,4.952322 z"
     inkscape:connector-curvature="0"
     style="fill:#00c23b" />
  <path
     id="path3904"
     d="m 66.170992,48.895281 a 1.793895,1.793895 0 1 1 -3.58779,0 1.793895,1.793895 0 1 1 3.58779,0 z"
     inkscape:connector-curvature="0"
     style="fill:#00c23b" />
  <path
     id="path3906"
     d="m 64.257478,62.88953 a 1.793895,1.793895 0 1 1 -3.58779,0 1.793895,1.793895 0 1 1 3.58779,0 z"
     inkscape:connector-curvature="0"
     style="fill:#00c23b" />
  <metadata
     id="metadata76">
    <rdf:RDF>
      <cc:Work>
        <dc:format>image/svg+xml</dc:format>
        <dc:type
           rdf:resource="http://purl.org/dc/dcmitype/StillImage" />
        <cc:license
           rdf:resource="http://creativecommons.org/licenses/publicdomain/" />
        <dc:publisher>
          <cc:Agent
             rdf:about="http://openclipart.org/">
            <dc:title>Openclipart</dc:title>
          </cc:Agent>
        </dc:publisher>
        <dc:title></dc:title>
      </cc:Work>
      <cc:License
         rdf:about="http://creativecommons.org/licenses/publicdomain/">
        <cc:permits
           rdf:resource="http://creativecommons.org/ns#Reproduction" />
        <cc:permits
           rdf:resource="http://creativecommons.org/ns#Distribution" />
        <cc:permits
           rdf:resource="http://creativecommons.org/ns#DerivativeWorks" />
      </cc:License>
    </rdf:RDF>
  </metadata>
  <path
     id="rect3957"
     d="m 7.1213466,35.111992 c -2.5176855,0 -4.5445339,2.026976 -4.5445339,4.544533 v 6.384238 c 0,0 42.1079243,8.461807 62.6518183,9.114375 20.543095,0.652568 59.812489,-4.85271 59.812489,-4.85271 V 39.656525 c 0,-2.517683 -2.02699,-4.544533 -4.54453,-4.544533 z"
     inkscape:connector-curvature="0"
     style="opacity:0.62184999;fill:url(#linearGradient4151)" />
</svg>
