<?xml version="1.0" encoding="UTF-8" standalone="no"?>
<!-- Created with Inkscape (http://www.inkscape.org/) -->

<svg
   xmlns:dc="http://purl.org/dc/elements/1.1/"
   xmlns:cc="http://creativecommons.org/ns#"
   xmlns:rdf="http://www.w3.org/1999/02/22-rdf-syntax-ns#"
   xmlns:svg="http://www.w3.org/2000/svg"
   xmlns="http://www.w3.org/2000/svg"
   xmlns:xlink="http://www.w3.org/1999/xlink"
   xmlns:sodipodi="http://sodipodi.sourceforge.net/DTD/sodipodi-0.dtd"
   xmlns:inkscape="http://www.inkscape.org/namespaces/inkscape"
   width="128"
   height="96"
   id="svg3232"
   version="1.1"
   inkscape:version="0.48.4 r9939"
   sodipodi:docname="m4.svg"
   inkscape:export-filename="D:\git\lucifer\TabletClock\image\m4.png"
   inkscape:export-xdpi="180"
   inkscape:export-ydpi="180">
  <defs
     id="defs3234">
    <radialGradient
       inkscape:collect="always"
       xlink:href="#radialGradient2731"
       id="radialGradient3092"
       gradientUnits="userSpaceOnUse"
       gradientTransform="matrix(1.2653e-7,-1.0008,1.0527,1.3251e-7,-59.965,792.66)"
       cx="377.14001"
       cy="404.35999"
       r="216.8" />
    <radialGradient
       id="radialGradient2731"
       gradientUnits="userSpaceOnUse"
       cy="404.35999"
       cx="377.14001"
       gradientTransform="matrix(1.2653e-7,-1.0008,1.0527,1.3251e-7,-59.965,792.66)"
       r="216.8">
      <stop
         id="stop2431"
         stop-color="#fffdbc"
         offset="0" />
      <stop
         id="stop2433"
         stop-color="#fcff00"
         offset="1" />
    </radialGradient>
    <linearGradient
       inkscape:collect="always"
       xlink:href="#linearGradient2733"
       id="linearGradient3094"
       gradientUnits="userSpaceOnUse"
       gradientTransform="translate(-103.04,-290.92)"
       x1="404.01999"
       y1="366.20001"
       x2="404.01999"
       y2="589.71002" />
    <linearGradient
       id="linearGradient2733"
       x1="404.01999"
       gradientUnits="userSpaceOnUse"
       y1="366.20001"
       gradientTransform="translate(-103.04,-290.92)"
       x2="404.01999"
       y2="589.71002">
      <stop
         id="stop3274"
         stop-color="#fff"
         stop-opacity=".375"
         offset="0" />
      <stop
         id="stop3276"
         stop-color="#fff"
         stop-opacity="0"
         offset="1" />
    </linearGradient>
    <radialGradient
       inkscape:collect="always"
       xlink:href="#radialGradient2735"
       id="radialGradient3096"
       gradientUnits="userSpaceOnUse"
       gradientTransform="matrix(-0.020617,1.022,-0.9998,-0.020169,-37.572,928.95)"
       cx="-468.78"
       cy="440.95999"
       r="128.57001" />
    <radialGradient
       id="radialGradient2735"
       gradientUnits="userSpaceOnUse"
       cy="440.95999"
       cx="-468.78"
       gradientTransform="matrix(-0.020617,1.022,-0.9998,-0.020169,-37.572,928.95)"
       r="128.57001">
      <stop
         id="stop2441"
         stop-color="#ff0"
         offset="0" />
      <stop
         id="stop2451"
         stop-color="#ffd400"
         offset=".5" />
      <stop
         id="stop2443"
         stop-color="#ffa900"
         offset="1" />
    </radialGradient>
    <filter
       color-interpolation-filters="sRGB"
       id="filter3227">
      <feGaussianBlur
         id="feGaussianBlur3229"
         stdDeviation="2.5714285" />
    </filter>
    <linearGradient
       inkscape:collect="always"
       xlink:href="#linearGradient3751"
       id="linearGradient3098"
       gradientUnits="userSpaceOnUse"
       x1="369.72"
       y1="452.32999"
       x2="389.92001"
       y2="549.44" />
    <linearGradient
       id="linearGradient3751">
      <stop
         id="stop3753"
         stop-color="#fff"
         offset="0" />
      <stop
         id="stop3755"
         stop-color="#fff"
         stop-opacity="0"
         offset="1" />
    </linearGradient>
    <linearGradient
       y2="549.44"
       x2="389.92001"
       y1="452.32999"
       x1="369.72"
       gradientUnits="userSpaceOnUse"
       id="linearGradient3275"
       xlink:href="#linearGradient3751"
       inkscape:collect="always" />
    <linearGradient
       inkscape:collect="always"
       xlink:href="#linearGradient2776"
       id="linearGradient3132"
       gradientUnits="userSpaceOnUse"
       gradientTransform="translate(533.36,20.203)"
       x1="-90.914001"
       y1="535.15997"
       x2="-83.844002"
       y2="670.52002" />
    <linearGradient
       id="linearGradient2776"
       x1="-90.914001"
       gradientUnits="userSpaceOnUse"
       y1="535.15997"
       gradientTransform="translate(533.36,20.203)"
       x2="-83.844002"
       y2="670.52002">
      <stop
         id="stop3343"
         stop-color="#96beff"
         offset="0" />
      <stop
         id="stop3345"
         stop-color="#09719f"
         offset="1" />
    </linearGradient>
    <linearGradient
       inkscape:collect="always"
       xlink:href="#linearGradient3751-1"
       id="linearGradient3134"
       gradientUnits="userSpaceOnUse"
       x1="-139.39999"
       y1="490.72"
       x2="-111.85"
       y2="632.14001" />
    <linearGradient
       id="linearGradient3751-1">
      <stop
         id="stop3753-7"
         stop-color="#fff"
         offset="0" />
      <stop
         id="stop3755-4"
         stop-color="#fff"
         stop-opacity="0"
         offset="1" />
    </linearGradient>
    <linearGradient
       inkscape:collect="always"
       xlink:href="#linearGradient2776"
       id="linearGradient3136"
       gradientUnits="userSpaceOnUse"
       gradientTransform="translate(533.36,20.203)"
       x1="-90.914001"
       y1="535.15997"
       x2="-83.844002"
       y2="670.52002" />
    <linearGradient
       id="linearGradient3353"
       x1="-90.914001"
       gradientUnits="userSpaceOnUse"
       y1="535.15997"
       gradientTransform="translate(533.36,20.203)"
       x2="-83.844002"
       y2="670.52002">
      <stop
         id="stop3355"
         stop-color="#96beff"
         offset="0" />
      <stop
         id="stop3357"
         stop-color="#09719f"
         offset="1" />
    </linearGradient>
    <linearGradient
       inkscape:collect="always"
       xlink:href="#linearGradient3751-1"
       id="linearGradient3138"
       gradientUnits="userSpaceOnUse"
       x1="-139.39999"
       y1="490.72"
       x2="-111.85"
       y2="632.14001" />
    <linearGradient
       id="linearGradient3360">
      <stop
         id="stop3362"
         stop-color="#fff"
         offset="0" />
      <stop
         id="stop3364"
         stop-color="#fff"
         stop-opacity="0"
         offset="1" />
    </linearGradient>
    <radialGradient
       id="radialGradient7778"
       gradientUnits="userSpaceOnUse"
       cy="-405.91"
       cx="97.468002"
       gradientTransform="matrix(0.021289,0,0,0.027586,323.37,-435.1)"
       r="358.45001">
      <stop
         id="stop9644"
         stop-color="#787974"
         offset="0" />
      <stop
         id="stop9646"
         stop-color="#787974"
         stop-opacity="0"
         offset="1" />
    </radialGradient>
  </defs>
  <sodipodi:namedview
     id="base"
     pagecolor="#ffffff"
     bordercolor="#666666"
     borderopacity="1.0"
     inkscape:pageopacity="0.0"
     inkscape:pageshadow="2"
     inkscape:zoom="2.8"
     inkscape:cx="117.85819"
     inkscape:cy="24.68712"
     inkscape:document-units="px"
     inkscape:current-layer="layer1"
     showgrid="false"
     width="128px"
     inkscape:window-width="1191"
     inkscape:window-height="734"
     inkscape:window-x="339"
     inkscape:window-y="365"
     inkscape:window-maximized="0" />
  <metadata
     id="metadata3237">
    <rdf:RDF>
      <cc:Work
         rdf:about="">
        <dc:format>image/svg+xml</dc:format>
        <dc:type
           rdf:resource="http://purl.org/dc/dcmitype/StillImage" />
        <dc:title></dc:title>
      </cc:Work>
    </rdf:RDF>
  </metadata>
  <g
     inkscape:label="Layer 1"
     inkscape:groupmode="layer"
     id="layer1"
     transform="translate(0,-956.36214)">
    <g
       transform="matrix(2.989681,0,0,2.989681,-19.259071,936.75165)"
       id="layer1-1">
      <g
         id="g7594"
         transform="matrix(0.9987,0,0,0.9987,-342.54,469.41)">
        <path
           style="fill:#eaece8"
           inkscape:connector-curvature="0"
           id="path7596"
           transform="matrix(1.3865,0,0,1.3865,444.99,-446.47)"
           d="m -46.5,0.25 a 9.75,9.75 0 1 1 -19.5,0 9.75,9.75 0 1 1 19.5,0 z" />
        <g
           id="g7598"
           transform="translate(37.125,-1.625)">
          <path
             style="opacity:0.10556;fill:#787974;fill-rule:evenodd"
             inkscape:connector-curvature="0"
             id="path7600"
             d="m 323.85,-456.08 c 0.04,0.18 -0.13,0.4 -0.28,0.6 -0.2,0.27 -0.31,0.45 -0.08,0.68 0.14,0.14 0.58,0.01 0.72,-0.04 0.32,-0.13 0.67,-0.23 0.99,-0.36 0.25,-0.1 0.43,-0.14 0.68,-0.2 0.29,-0.07 0.57,0.06 0.68,0.2 0.07,0.09 -0.46,0.49 -0.52,0.52 -0.24,0.12 -0.47,0.22 -0.72,0.28 -0.3,0.07 -0.57,0.18 -0.88,0.24 -0.3,0.06 -0.52,0.15 -0.79,0.32 -0.34,0.2 -0.63,0.5 -0.92,0.79 -0.27,0.28 -0.37,0.57 -0.28,0.92 0.08,0.34 0.21,0.46 0.52,0.52 0.34,0.07 0.51,-0.09 0.68,-0.32 0.21,-0.29 0.3,-0.66 0.56,-0.92 0.21,-0.21 0.36,-0.42 0.59,-0.59 0.24,-0.18 0.42,-0.28 0.72,-0.2 0.25,0.06 0.45,0.3 0.72,0.36 0.23,0.04 0.56,-0.27 0.76,-0.36 0.04,-0.03 0.08,-0.06 0.12,-0.08 0.21,-0.14 0.55,-0.08 0.8,-0.08 0.27,0 0.49,0.12 0.71,0.24 0.27,0.13 0.51,0.12 0.76,0.32 0.28,0.2 0.42,0.35 0.56,0.63 0.13,0.27 0.19,0.43 0.4,0.64 0.22,0.22 0.56,0.36 0.8,0.6 0.14,0.14 0.23,0.53 0.28,0.72 0.07,0.29 0.14,0.6 0,0.88 -0.15,0.3 -0.33,0.58 -0.48,0.87 -0.15,0.29 -0.55,0.54 -0.8,0.72 -0.34,0.26 -0.75,0.28 -1.08,0.6 -0.37,0.38 -0.41,0.6 -0.75,1.12 -0.26,0.38 0.04,0.56 0.35,0.48 0.33,-0.08 0.64,-0.16 0.96,-0.24 0.06,-0.02 0.11,-0.03 0.16,-0.04 0.4,-0.1 0.72,-0.42 1.12,-0.52 0.5,-0.12 1.54,0.65 1.99,0.92 0.36,0.21 -0.06,0.63 -0.24,0.72 -0.31,0.15 -0.63,0.2 -0.99,0.2 -0.24,0 -0.5,-0.08 -0.72,-0.12 -0.31,-0.07 -0.52,-0.07 -0.76,0.12 -0.27,0.2 -0.24,0.45 -0.08,0.71 0.16,0.26 0.41,0.45 0.48,0.72 0.09,0.35 -0.19,0.53 -0.44,0.68 -0.25,0.15 -0.67,-0.04 -0.96,-0.04 -0.36,0 -0.71,0.18 -0.99,0.4 -0.13,0.1 -0.25,0.61 -0.28,0.76 -0.02,0.05 -0.03,0.1 -0.04,0.16 -0.1,0.39 0.02,0.58 0.16,0.91 0.09,0.24 0.32,0.46 0.43,0.68 0.14,0.28 0.23,0.46 0.08,0.76 -0.12,0.26 -0.17,0.46 -0.23,0.72 -0.05,0.18 0.2,0.66 0.27,0.84 0.15,0.36 0.01,0.43 -0.23,0.68 -0.23,0.22 -0.56,0.27 -0.8,0.39 -0.23,0.12 -0.68,-0.02 -0.92,-0.07 -0.27,-0.07 -0.52,0.05 -0.72,0.15 -0.32,0.17 -0.32,0.32 -0.56,0 -0.25,-0.33 -0.46,-0.68 -0.56,-1.07 -0.01,-0.06 -0.02,-0.11 -0.04,-0.16 -0.06,-0.27 -0.04,-0.6 -0.04,-0.88 0,-0.29 0.08,-0.54 0.08,-0.84 0,-0.31 -0.75,0.28 -0.95,0.36 -0.1,0.04 -0.19,0.08 -0.28,0.12 -0.4,0.17 -0.36,0.54 -0.36,0.88 0,0.34 0.2,0.6 0.2,0.96 0,0.34 -0.41,0.44 -0.68,0.44 -0.39,0 -0.57,-0.46 -0.84,-0.72 -0.25,-0.26 -0.69,-0.54 -0.84,-0.84 -0.21,-0.43 -0.28,-0.67 0.16,-1 0.26,-0.19 0.61,-0.22 0.8,-0.48 0.2,-0.26 0.48,-0.64 0,-0.76 -0.33,-0.08 -0.46,-0.19 -0.84,-0.12 -0.06,0.02 -0.13,0.03 -0.2,0.04 -0.66,0.14 -0.65,0.08 -1.27,-0.23 -0.45,-0.23 -0.6,-0.57 -0.92,-0.88 -0.3,-0.3 -0.46,-0.69 -0.56,-1.08 -0.09,-0.35 -0.19,-0.7 -0.28,-1.04 -0.07,-0.28 -0.08,-0.62 -0.08,-0.92 0,-0.29 -0.08,-0.61 -0.08,-0.91 v -1 c 0,-0.34 0.04,-0.63 0.04,-0.96 0,-0.28 0.05,-0.61 0.12,-0.88 0.01,-0.02 0,-0.05 0,-0.08 0,-0.34 0.2,-0.69 0.32,-0.99 0.11,-0.27 0.27,-0.55 0.4,-0.8 0.13,-0.26 0.26,-0.48 0.44,-0.72 0.19,-0.26 0.39,-0.52 0.6,-0.76 0.34,-0.42 0.7,-0.81 1.11,-1.16 0.24,-0.2 0.36,-0.54 0.64,-0.75 0.35,-0.27 0.65,-0.54 1,-0.8 0.26,-0.2 0.5,-0.43 0.68,-0.72 0.14,-0.24 0.22,-0.46 0.44,-0.68 0.05,-0.05 0.23,-0.13 0.28,-0.16 z" />
          <path
             style="opacity:0.18888999;fill:#787974;fill-rule:evenodd"
             inkscape:connector-curvature="0"
             id="path7602"
             d="m 334.86,-450.97 c -0.39,0.09 -1.15,0.22 -1.68,0.12 -0.4,-0.08 -0.41,-0.3 -0.79,0.08 -0.03,0.03 -0.06,0.05 -0.08,0.08 -0.25,0.24 -0.28,0.28 -0.28,0.64 0,0.23 0,0.46 -0.04,0.68 -0.05,0.23 -0.02,0.59 0.04,0.79 0.07,0.32 0.12,0.54 0.28,0.84 0.12,0.24 0.17,0.43 0.39,0.6 0.29,0.22 0.69,0.27 1,0.4 0.22,0.09 0.59,0.04 0.84,0.04 0.31,0 0.36,0.03 0.36,0.4 0,0.31 -0.59,0.75 -0.76,1.04 -0.19,0.31 -0.12,0.56 0,0.91 0.09,0.27 0.15,0.53 0.2,0.8 0.06,0.29 0.13,0.49 0.36,0.72 0.24,0.24 0.69,-0.03 0.92,0.28 0.11,0.15 0.12,0.41 0.12,0.6 0,0.32 0.1,0.47 0.4,0.32 0.27,-0.14 0.47,-0.13 0.67,-0.4 0.2,-0.26 0.3,-0.59 0.44,-0.88 0.13,-0.26 0.35,-0.28 0.64,-0.28 0.27,0 0.48,0.07 0.76,0 0.41,-0.1 0.47,-0.23 0.76,-0.52 0.37,-0.36 0.32,-0.62 0.4,-1.08 0.03,-0.2 -0.04,-0.45 -0.08,-0.63 -0.02,-0.06 -0.03,-0.11 -0.04,-0.16 -0.06,-0.23 -0.55,-0.24 -0.72,-0.24 -0.39,0 -0.96,-0.19 -1.32,-0.28 -0.18,-0.05 -0.69,-0.65 -0.84,-0.8 -0.21,-0.21 -0.25,-0.37 -0.31,-0.64 -0.09,-0.33 -0.04,-0.67 -0.12,-1 -0.1,-0.37 0.01,-0.58 -0.28,-0.87 -0.21,-0.21 -0.35,-0.5 -0.4,-0.76 -0.05,-0.25 -0.29,-0.54 -0.48,-0.68 -0.14,-0.11 -0.16,-0.08 -0.36,-0.12 z" />
          <path
             style="opacity:0.18332998;fill:#787974;fill-rule:evenodd"
             inkscape:connector-curvature="0"
             id="path7604"
             d="m 341,-448.66 c -0.2,0.01 -0.41,0.26 -0.59,0.44 -0.18,0.18 -0.12,0.48 -0.12,0.72 0,0.26 0.05,0.54 0.12,0.8 0.05,0.22 0.25,0.49 0.4,0.64 0.22,0.22 0.5,0.35 0.79,0.4 0.39,0.06 0.61,0.11 0.76,-0.28 0.11,-0.27 0.16,-0.46 0.16,-0.76 0,-0.28 -0.01,-0.49 -0.08,-0.76 -0.08,-0.32 -0.19,-0.49 -0.48,-0.64 -0.2,-0.1 -0.42,-0.34 -0.6,-0.48 -0.1,-0.07 -0.23,-0.08 -0.36,-0.08 z" />
          <path
             style="opacity:0.47222003;fill:#f3f4f2;fill-rule:evenodd"
             inkscape:connector-curvature="0"
             id="path7606"
             d="m 328.36,-436.21 c 0.21,-0.14 0.84,-0.79 1.27,-1.11 0.09,-0.07 0.16,-0.14 0.24,-0.2 0.43,-0.36 0.81,-0.93 1.12,-1.4 0.49,-0.74 0.71,-1.41 0.88,-2.23 0.21,-1.05 0.26,-0.35 0.04,0.32 -0.04,0.1 -0.06,0.21 -0.08,0.31 -0.11,0.44 -0.16,0.9 -0.32,1.32 -0.23,0.57 -0.65,1.05 -0.8,1.64 -0.08,0.31 -0.19,0.69 -0.12,0.95 0.08,0.32 0.53,-0.37 0.84,-0.47 0.41,-0.14 0.52,-0.23 0.52,0.24 0,0.28 -0.15,0.67 -0.2,0.95 -0.1,0.49 1.29,0.08 1.59,0 1.01,-0.25 1.7,-0.59 2.52,-1.27 0.9,-0.75 1.64,-1.57 2.47,-2.4 0.67,-0.66 0.98,-1.08 0.56,0.04 -0.04,0.11 -0.08,0.21 -0.12,0.32 -0.04,0.11 -0.08,0.21 -0.12,0.32 -0.22,0.59 -0.62,1.24 -1.16,1.6 -0.83,0.55 -1.37,1.58 -2.27,2.03 -0.37,0.18 -0.75,0.26 -1.12,0.44 -0.37,0.19 0.72,0.32 0.92,0.36 2,0.44 -1.62,0.64 -2.08,0.64 -0.74,0 -1.12,-0.16 -1.71,0.2 -0.2,0.12 0.94,0.59 1,0.6 0.46,0.09 0.88,0.4 1.39,0.4 0.85,0 -1.77,0.26 -2.51,0.08 -0.62,-0.16 -1.21,-0.29 -1.84,-0.44 -0.31,-0.08 -0.63,-0.03 -0.91,0.04 -0.06,0.01 0.04,0.82 0.04,0.91 0,0.59 -0.16,1.06 -0.44,0.2 -0.16,-0.46 -0.44,-0.94 -0.44,-1.43 0,-0.31 -0.41,0.47 -0.6,0.72 -0.26,0.35 -0.78,0.85 -0.88,0.87 -0.01,0.01 0.26,-0.55 0.36,-0.95 0.08,-0.31 0.57,-1.12 0.24,-1.2 -0.31,-0.08 -0.73,-0.02 -1.04,-0.08 -0.46,-0.09 -0.96,-0.18 -1.39,-0.4 -0.85,-0.42 -2.17,-0.81 -3.08,-1.04 -0.08,-0.02 -1.45,-1.49 -0.16,-0.2 0.86,0.86 2.19,1.44 3.39,1.44 0.39,0 0.96,-0.15 1.32,-0.24 0.22,-0.05 0.52,-0.38 0.76,-0.48 0.26,-0.1 -0.42,-0.38 -0.6,-0.6 -0.07,-0.08 -0.13,-0.16 -0.2,-0.24 -0.71,-0.86 -0.96,-2.04 -1.79,-2.87 -0.14,-0.13 -2.08,-2.4 -1.16,-1.64 0.95,0.8 1.83,1.5 2.63,2.44 0.41,0.48 0.77,1.1 1.16,1.59 0.39,0.5 0.31,-0.1 0.2,-0.44 -0.24,-0.72 -0.12,-1.72 -0.12,-2.47 0,-1 0.52,1.03 0.56,1.2 0.12,0.49 0.38,1.14 0.76,0.64 0.39,-0.52 0.44,-0.62 0.44,0.04 v 0.16 c 0,0.24 -0.02,0.53 0.04,0.79 z" />
          <path
             style="opacity:0.11667002;fill:#787974;fill-rule:evenodd"
             inkscape:connector-curvature="0"
             id="path7608"
             d="m 340.05,-444.98 c 0.08,0.08 0.16,0.37 0.16,0.63 0,0.11 -0.66,0.62 -0.76,0.72 -0.19,0.19 -0.23,0.52 -0.28,0.76 -0.06,0.31 -0.14,0.53 -0.08,0.84 0.05,0.26 0.16,0.52 0.28,0.76 0.14,0.28 0.35,0.43 0.6,0.67 0.27,0.28 0.61,0.28 0.95,0.36 0.44,0.11 -0.25,0.53 -0.35,0.6 -0.27,0.2 -0.53,0.26 -0.68,0.56 -0.18,0.35 0.18,0.47 0.4,0.56 0.24,0.1 0.6,-0.33 0.71,-0.48 0.16,-0.2 0.4,-0.43 0.4,-0.68 0,-0.24 0.12,-0.51 0.12,-0.8 0,-0.27 0.06,-0.56 0.12,-0.79 0.09,-0.36 0.22,-0.5 0.44,-0.72 0.18,-0.18 0.18,-0.62 0.12,-0.84 -0.06,-0.25 -0.22,-0.48 -0.28,-0.72 -0.06,-0.24 -0.36,-0.39 -0.56,-0.44 -0.23,-0.06 -0.56,-0.48 -0.71,-0.64 -0.21,-0.2 -0.3,-0.35 -0.6,-0.35 z" />
          <path
             style="fill:none;stroke:#000000;stroke-width:1.00129998px"
             inkscape:connector-curvature="0"
             id="path7610"
             d="m 322.69,-446.02 c -0.01,-0.01 0.03,0 0,0 z" />
          <path
             style="opacity:0.2;fill:#938f8b;fill-rule:evenodd"
             inkscape:connector-curvature="0"
             id="path7612"
             d="m 327.6,-455.68 c 0.17,-0.04 0.57,-0.17 0.84,-0.24 0.34,-0.08 0.69,0.12 1.03,0.12 0.04,0 0.26,0.44 0.64,0.44 h 0.16 c 0.24,0 0.51,0.19 0.68,0.36 0.16,0.16 0.01,0.54 -0.08,0.64 -0.25,0.25 -0.48,0.07 -0.68,-0.12 -0.21,-0.21 -0.32,-0.29 -0.6,-0.36 -0.27,-0.07 -0.57,-0.03 -0.84,0.04 -0.32,0.08 -0.54,0.16 -0.91,0.16 -0.13,0 -0.52,-0.55 -0.56,-0.64 -0.08,-0.16 0.22,-0.37 0.32,-0.4 z" />
          <path
             style="opacity:0.28888999;fill:#938f8b;fill-rule:evenodd"
             inkscape:connector-curvature="0"
             id="path7614"
             d="m 332.43,-455 c 0.19,0.05 0.64,0.04 0.95,-0.04 0.35,-0.09 0.91,-0.13 1.28,-0.04 0.22,0.06 1.59,0.32 0.96,0.64 -0.31,0.15 -0.64,0.19 -0.92,0.36 -0.33,0.2 0.4,0.28 0.56,0.28 0.42,0 0.18,0.51 0.08,0.67 -0.16,0.27 -0.05,0.67 0,0.92 0.06,0.29 0.55,0.24 0.8,0.24 0.34,0 0.63,0.05 0.83,0.32 0.19,0.24 0.44,0.49 0.32,0.72 -0.12,0.24 -0.72,0.28 -0.91,0.28 -0.16,0 -0.75,-0.76 -0.84,-0.84 -0.23,-0.2 -0.5,-0.01 -0.72,0.04 -0.39,0.1 -0.68,-0.4 -0.92,-0.6 -0.26,-0.22 -0.42,-0.53 -0.56,-0.8 -0.17,-0.33 0.11,-0.47 -0.4,-0.47 -0.31,0 -0.48,-0.07 -0.71,-0.24 -0.32,-0.24 -0.56,-0.15 -0.56,-0.6 0,-0.4 0.02,-0.52 0.36,-0.72 0.1,-0.07 0.25,-0.03 0.4,-0.12 z" />
          <path
             style="opacity:0.17778003;fill:url(#radialGradient7778);fill-rule:evenodd"
             inkscape:connector-curvature="0"
             id="path7616"
             d="m 323.88,-456.19 c 0.05,0.18 -0.13,0.39 -0.28,0.6 -0.2,0.27 -0.31,0.45 -0.08,0.68 0.14,0.14 0.58,0.01 0.72,-0.04 0.32,-0.13 0.67,-0.23 0.99,-0.36 0.25,-0.1 0.43,-0.14 0.68,-0.2 0.29,-0.07 0.57,0.06 0.68,0.2 0.07,0.09 -0.46,0.49 -0.52,0.52 -0.24,0.12 -0.47,0.21 -0.72,0.28 -0.3,0.07 -0.57,0.17 -0.87,0.24 -0.31,0.06 -0.53,0.15 -0.8,0.31 -0.34,0.21 -0.63,0.51 -0.92,0.8 -0.27,0.28 -0.37,0.57 -0.28,0.92 0.08,0.34 0.21,0.46 0.52,0.52 0.34,0.07 0.51,-0.1 0.68,-0.32 0.22,-0.29 0.3,-0.66 0.56,-0.92 0.21,-0.21 0.36,-0.42 0.59,-0.6 0.24,-0.18 0.43,-0.27 0.72,-0.2 0.25,0.07 0.45,0.31 0.72,0.36 0.23,0.05 0.56,-0.26 0.76,-0.36 0.04,-0.02 0.08,-0.05 0.12,-0.08 0.21,-0.13 0.55,-0.08 0.8,-0.08 0.27,0 0.49,0.13 0.72,0.24 0.26,0.14 0.5,0.13 0.75,0.32 0.28,0.21 0.42,0.36 0.56,0.64 0.13,0.27 0.19,0.43 0.4,0.64 0.22,0.22 0.56,0.36 0.8,0.6 0.14,0.14 0.23,0.53 0.28,0.72 0.07,0.29 0.14,0.6 0,0.87 -0.15,0.31 -0.33,0.59 -0.48,0.88 -0.15,0.29 -0.55,0.53 -0.8,0.72 -0.34,0.26 -0.75,0.27 -1.08,0.6 -0.37,0.37 -0.41,0.6 -0.75,1.12 -0.26,0.38 0.04,0.55 0.36,0.48 0.32,-0.09 0.63,-0.16 0.95,-0.24 0.06,-0.02 0.11,-0.03 0.16,-0.04 0.4,-0.1 0.72,-0.42 1.12,-0.52 0.5,-0.13 1.54,0.64 1.99,0.92 0.36,0.21 -0.06,0.63 -0.23,0.71 -0.32,0.16 -0.64,0.2 -1,0.2 -0.24,0 -0.49,-0.07 -0.72,-0.12 -0.31,-0.06 -0.52,-0.06 -0.76,0.12 -0.27,0.2 -0.23,0.46 -0.08,0.72 0.16,0.26 0.41,0.45 0.48,0.72 0.09,0.35 -0.19,0.53 -0.44,0.68 -0.25,0.15 -0.67,-0.04 -0.96,-0.04 -0.36,0 -0.71,0.18 -0.99,0.4 -0.13,0.09 -0.25,0.61 -0.28,0.76 -0.02,0.05 -0.03,0.1 -0.04,0.16 -0.1,0.38 0.02,0.58 0.16,0.91 0.09,0.24 0.32,0.46 0.44,0.68 0.13,0.28 0.22,0.46 0.08,0.76 -0.13,0.25 -0.18,0.46 -0.24,0.72 -0.05,0.18 0.2,0.66 0.28,0.84 0.14,0.36 0.01,0.42 -0.24,0.67 -0.22,0.22 -0.56,0.28 -0.8,0.4 -0.23,0.12 -0.68,-0.02 -0.92,-0.08 -0.27,-0.06 -0.52,0.06 -0.72,0.16 -0.32,0.16 -0.32,0.32 -0.56,0 -0.25,-0.33 -0.46,-0.68 -0.56,-1.07 -0.01,-0.06 -0.02,-0.11 -0.04,-0.16 -0.06,-0.27 -0.04,-0.6 -0.04,-0.88 0,-0.29 0.08,-0.55 0.08,-0.84 0,-0.32 -0.75,0.28 -0.95,0.36 -0.1,0.04 -0.19,0.08 -0.28,0.12 -0.4,0.17 -0.36,0.53 -0.36,0.88 0,0.34 0.2,0.6 0.2,0.95 0,0.35 -0.41,0.44 -0.68,0.44 -0.39,0 -0.57,-0.45 -0.84,-0.71 -0.25,-0.26 -0.69,-0.54 -0.84,-0.84 -0.21,-0.43 -0.28,-0.67 0.16,-1 0.26,-0.19 0.61,-0.23 0.8,-0.48 0.2,-0.26 0.48,-0.64 0,-0.76 -0.33,-0.08 -0.45,-0.19 -0.84,-0.12 -0.06,0.02 -0.13,0.03 -0.2,0.04 -0.66,0.13 -0.65,0.07 -1.27,-0.24 -0.45,-0.22 -0.6,-0.56 -0.92,-0.87 -0.3,-0.3 -0.46,-0.7 -0.56,-1.08 -0.09,-0.36 -0.19,-0.7 -0.28,-1.04 -0.07,-0.28 -0.08,-0.63 -0.08,-0.92 0,-0.29 -0.08,-0.61 -0.08,-0.92 v -0.99 c 0,-0.34 0.04,-0.64 0.04,-0.96 0,-0.28 0.06,-0.62 0.12,-0.88 0.01,-0.02 0,-0.05 0,-0.08 0,-0.34 0.2,-0.69 0.32,-1 0.11,-0.26 0.27,-0.54 0.4,-0.79 0.13,-0.26 0.26,-0.48 0.44,-0.72 0.19,-0.26 0.4,-0.52 0.6,-0.76 0.34,-0.42 0.71,-0.81 1.11,-1.16 0.24,-0.2 0.36,-0.54 0.64,-0.76 0.35,-0.26 0.65,-0.53 1,-0.79 0.26,-0.2 0.5,-0.43 0.68,-0.72 0.14,-0.24 0.22,-0.47 0.44,-0.68 0.05,-0.05 0.23,-0.14 0.28,-0.16 z" />
          <path
             style="opacity:0.61667002;fill:#ffffff"
             inkscape:connector-curvature="0"
             id="path7618"
             transform="matrix(0.021289,0,0,0.021289,345.15,-457.77)"
             d="m -824.73,649.37 a 31.865,31.865 0 1 1 -63.73,0 31.865,31.865 0 1 1 63.73,0 z" />
          <path
             style="opacity:0.54444;fill:#ffffff"
             inkscape:connector-curvature="0"
             id="path7620"
             transform="matrix(0.011271,0,0,0.011271,330.39,-456.65)"
             d="m -824.73,649.37 a 31.865,31.865 0 1 1 -63.73,0 31.865,31.865 0 1 1 63.73,0 z" />
          <path
             style="opacity:0.54444;fill:#c2c3be"
             inkscape:connector-curvature="0"
             id="path7622"
             transform="matrix(0.021289,0,0,0.021289,354.93,-458.53)"
             d="m -824.73,649.37 a 31.865,31.865 0 1 1 -63.73,0 31.865,31.865 0 1 1 63.73,0 z" />
          <path
             style="opacity:0.56667002;fill:#c2c3be"
             inkscape:connector-curvature="0"
             id="path7624"
             transform="matrix(0.021289,0,0,0.021289,349.82,-448.31)"
             d="m -824.73,649.37 a 31.865,31.865 0 1 1 -63.73,0 31.865,31.865 0 1 1 63.73,0 z" />
          <path
             style="opacity:0.61667002;fill:#ffffff"
             inkscape:connector-curvature="0"
             id="path7626"
             transform="matrix(0.013775,0,0,0.013775,347.86,-453.49)"
             d="m -824.73,649.37 a 31.865,31.865 0 1 1 -63.73,0 31.865,31.865 0 1 1 63.73,0 z" />
          <path
             style="opacity:0.61667002;fill:#ffffff"
             inkscape:connector-curvature="0"
             id="path7628"
             transform="matrix(0.011271,0,0,0.011271,337.49,-441.33)"
             d="m -824.73,649.37 a 31.865,31.865 0 1 1 -63.73,0 31.865,31.865 0 1 1 63.73,0 z" />
          <path
             style="opacity:0.61667002;fill:#ffffff"
             inkscape:connector-curvature="0"
             id="path7630"
             transform="matrix(0.013775,0,0,0.013775,346.18,-447.59)"
             d="m -824.73,649.37 a 31.865,31.865 0 1 1 -63.73,0 31.865,31.865 0 1 1 63.73,0 z" />
          <path
             style="opacity:0.61667002;fill:#ffffff"
             inkscape:connector-curvature="0"
             id="path7632"
             transform="matrix(0.013775,0,0,0.013775,351.37,-459)"
             d="m -824.73,649.37 a 31.865,31.865 0 1 1 -63.73,0 31.865,31.865 0 1 1 63.73,0 z" />
          <path
             style="opacity:0.61667002;fill:#ffffff"
             inkscape:connector-curvature="0"
             id="path7634"
             transform="matrix(0.013775,0,0,0.013775,348.34,-458.2)"
             d="m -824.73,649.37 a 31.865,31.865 0 1 1 -63.73,0 31.865,31.865 0 1 1 63.73,0 z" />
          <path
             style="opacity:0.61667002;fill:#ffffff"
             inkscape:connector-curvature="0"
             id="path7636"
             transform="matrix(0.013775,0,0,0.013775,349.53,-462.67)"
             d="m -824.73,649.37 a 31.865,31.865 0 1 1 -63.73,0 31.865,31.865 0 1 1 63.73,0 z" />
          <path
             style="opacity:0.61667002;fill:#ffffff"
             inkscape:connector-curvature="0"
             id="path7638"
             transform="matrix(0.013775,0,0,0.013775,340.67,-449.42)"
             d="m -824.73,649.37 a 31.865,31.865 0 1 1 -63.73,0 31.865,31.865 0 1 1 63.73,0 z" />
          <path
             style="fill:#ffffff;fill-rule:evenodd"
             inkscape:connector-curvature="0"
             id="path7640"
             d="m 328.31,-435.94 c 0.2,-0.14 0.79,-0.73 1.19,-1.03 0.07,-0.05 0.15,-0.12 0.22,-0.18 0.4,-0.33 0.75,-0.85 1.03,-1.28 0.46,-0.68 0.67,-1.29 0.82,-2.04 0.19,-0.96 0.24,-0.32 0.04,0.29 -0.04,0.1 -0.05,0.19 -0.08,0.29 -0.1,0.4 -0.14,0.83 -0.29,1.21 -0.21,0.51 -0.61,0.96 -0.74,1.5 -0.08,0.28 -0.18,0.63 -0.12,0.87 0.08,0.29 0.5,-0.34 0.78,-0.44 0.39,-0.12 0.48,-0.21 0.48,0.22 0,0.26 -0.13,0.62 -0.18,0.88 -0.09,0.45 1.19,0.07 1.48,0 0.93,-0.23 1.57,-0.55 2.33,-1.17 0.83,-0.68 1.52,-1.43 2.29,-2.19 0.62,-0.61 0.91,-0.99 0.52,0.04 -0.04,0.09 -0.08,0.19 -0.11,0.29 -0.04,0.09 -0.08,0.19 -0.11,0.29 -0.21,0.54 -0.58,1.14 -1.08,1.46 -0.77,0.51 -1.27,1.45 -2.1,1.86 -0.34,0.17 -0.7,0.24 -1.04,0.41 -0.34,0.16 0.67,0.28 0.85,0.32 1.86,0.41 -1.5,0.59 -1.92,0.59 -0.7,0 -1.04,-0.14 -1.59,0.18 -0.19,0.11 0.87,0.54 0.92,0.55 0.43,0.08 0.82,0.36 1.3,0.36 0.78,0 -1.65,0.25 -2.33,0.08 -0.58,-0.14 -1.13,-0.26 -1.71,-0.4 -0.29,-0.08 -0.59,-0.03 -0.85,0.03 -0.05,0.01 0.04,0.76 0.04,0.84 0,0.54 -0.14,0.97 -0.41,0.18 -0.14,-0.42 -0.4,-0.86 -0.4,-1.31 0,-0.29 -0.38,0.43 -0.56,0.66 -0.24,0.32 -0.72,0.78 -0.81,0.8 -0.01,0 0.24,-0.51 0.33,-0.88 0.07,-0.27 0.53,-1.02 0.22,-1.09 -0.28,-0.07 -0.67,-0.02 -0.96,-0.07 -0.43,-0.09 -0.89,-0.17 -1.29,-0.37 -0.79,-0.39 -2.01,-0.74 -2.85,-0.95 -0.08,-0.02 -1.35,-1.37 -0.15,-0.18 0.79,0.78 2.03,1.31 3.14,1.31 0.36,0 0.89,-0.13 1.23,-0.22 0.2,-0.05 0.47,-0.35 0.7,-0.43 0.24,-0.1 -0.39,-0.35 -0.56,-0.55 -0.06,-0.08 -0.12,-0.15 -0.18,-0.22 -0.66,-0.79 -0.9,-1.87 -1.67,-2.63 -0.12,-0.12 -1.92,-2.2 -1.07,-1.5 0.88,0.73 1.7,1.37 2.44,2.23 0.38,0.44 0.71,1.01 1.08,1.46 0.36,0.45 0.28,-0.09 0.18,-0.4 -0.22,-0.66 -0.11,-1.58 -0.11,-2.27 0,-0.91 0.48,0.94 0.52,1.1 0.11,0.45 0.35,1.04 0.7,0.58 0.36,-0.47 0.41,-0.56 0.41,0.04 v 0.15 c 0,0.22 -0.02,0.48 0.03,0.73 z" />
          <g
             style="opacity:0.31667002;fill:#a3a4a0"
             id="g7642"
             transform="translate(461.7,-517.21)">
            <path
               inkscape:connector-curvature="0"
               id="path7644"
               transform="matrix(1,0,0,1.0556,-0.17678,-4.0809)"
               d="m -125.69,68.683 a 1.7678,1.591 0 1 1 -3.53,0 1.7678,1.591 0 1 1 3.53,0 z" />
            <path
               inkscape:connector-curvature="0"
               id="path7646"
               transform="matrix(1,0,0,1.0556,1.7678,-0.10344)"
               d="m -125.69,68.683 a 1.7678,1.591 0 1 1 -3.53,0 1.7678,1.591 0 1 1 3.53,0 z" />
            <path
               inkscape:connector-curvature="0"
               id="path7648"
               transform="matrix(0.65,0,0,0.68611,-40.279,25.214)"
               d="m -125.69,68.683 a 1.7678,1.591 0 1 1 -3.53,0 1.7678,1.591 0 1 1 3.53,0 z" />
            <path
               inkscape:connector-curvature="0"
               id="path7651"
               transform="matrix(1.55,0,0,1.6361,63.03,-45.537)"
               d="m -125.69,68.683 a 1.7678,1.591 0 1 1 -3.53,0 1.7678,1.591 0 1 1 3.53,0 z" />
            <path
               inkscape:connector-curvature="0"
               id="path7653"
               transform="matrix(1.8,0,0,1.9,89.148,-57.506)"
               d="m -125.69,68.683 a 1.7678,1.591 0 1 1 -3.53,0 1.7678,1.591 0 1 1 3.53,0 z" />
            <path
               inkscape:connector-curvature="0"
               id="path7655"
               transform="matrix(1.4,0,0,1.4778,42.32,-25.709)"
               d="m -125.69,68.683 a 1.7678,1.591 0 1 1 -3.53,0 1.7678,1.591 0 1 1 3.53,0 z" />
            <path
               inkscape:connector-curvature="0"
               id="path7657"
               transform="matrix(1.4,0,0,1.4778,40.729,-32.285)"
               d="m -125.69,68.683 a 1.7678,1.591 0 1 1 -3.53,0 1.7678,1.591 0 1 1 3.53,0 z" />
          </g>
          <path
             style="fill:#ffffff"
             inkscape:connector-curvature="0"
             id="path7659"
             transform="translate(490.91,-504.26)"
             d="m -161.84,69.523 a 0.66291,0.66291 0 1 1 -1.32,0 0.66291,0.66291 0 1 1 1.32,0 z" />
        </g>
        <path
           style="fill:none;stroke:#888a85;stroke-width:0.72219002"
           inkscape:connector-curvature="0"
           id="path7661"
           d="m -46.5,0.25 a 9.75,9.75 0 1 1 -19.5,0 9.75,9.75 0 1 1 19.5,0 z"
           transform="matrix(1.3865,0,0,1.3865,445.01,-446.36)" />
        <path
           style="fill:none;stroke:#ffffff;stroke-width:0.76089001;stroke-linecap:square"
           inkscape:connector-curvature="0"
           id="path7663"
           d="m -22.5,-17.5 a 9.5,9.5 0 1 1 -19,0 9.5,9.5 0 1 1 19,0 z"
           transform="matrix(0.77807,-1.0613,1.0613,0.77807,410.47,-466.35)" />
      </g>
    </g>
    <path
       style="fill:#000000;fill-opacity:0.70588235;stroke:none"
       d="M 53.71875 10.4375 A 41.740642 41.740642 0 0 0 10.75 52.1875 A 41.740642 41.740642 0 0 0 60.71875 93.03125 A 41.740642 41.740642 0 0 1 26.59375 52.0625 A 41.740642 41.740642 0 0 1 60.09375 11.15625 A 41.740642 41.740642 0 0 0 53.71875 10.4375 z "
       transform="translate(0,956.36214)"
       id="path7661-1-1" />
  </g>
</svg>
