<?xml version="1.0" encoding="UTF-8" standalone="no"?>
<!-- Created with Inkscape (http://www.inkscape.org/) -->

<svg
   xmlns:dc="http://purl.org/dc/elements/1.1/"
   xmlns:cc="http://creativecommons.org/ns#"
   xmlns:rdf="http://www.w3.org/1999/02/22-rdf-syntax-ns#"
   xmlns:svg="http://www.w3.org/2000/svg"
   xmlns="http://www.w3.org/2000/svg"
   xmlns:xlink="http://www.w3.org/1999/xlink"
   xmlns:sodipodi="http://sodipodi.sourceforge.net/DTD/sodipodi-0.dtd"
   xmlns:inkscape="http://www.inkscape.org/namespaces/inkscape"
   width="128"
   height="96"
   id="svg3232"
   version="1.1"
   inkscape:version="0.48.4 r9939"
   sodipodi:docname="p02n.svg"
   inkscape:export-filename="D:\git\lucifer\TabletClock\image\p02n.png"
   inkscape:export-xdpi="180"
   inkscape:export-ydpi="180">
  <defs
     id="defs3234">
    <radialGradient
       inkscape:collect="always"
       xlink:href="#radialGradient2731"
       id="radialGradient3092"
       gradientUnits="userSpaceOnUse"
       gradientTransform="matrix(1.2653e-7,-1.0008,1.0527,1.3251e-7,-59.965,792.66)"
       cx="377.14001"
       cy="404.35999"
       r="216.8" />
    <radialGradient
       id="radialGradient2731"
       gradientUnits="userSpaceOnUse"
       cy="404.35999"
       cx="377.14001"
       gradientTransform="matrix(1.2653e-7,-1.0008,1.0527,1.3251e-7,-59.965,792.66)"
       r="216.8">
      <stop
         id="stop2431"
         stop-color="#fffdbc"
         offset="0" />
      <stop
         id="stop2433"
         stop-color="#fcff00"
         offset="1" />
    </radialGradient>
    <linearGradient
       inkscape:collect="always"
       xlink:href="#linearGradient2733"
       id="linearGradient3094"
       gradientUnits="userSpaceOnUse"
       gradientTransform="translate(-103.04,-290.92)"
       x1="404.01999"
       y1="366.20001"
       x2="404.01999"
       y2="589.71002" />
    <linearGradient
       id="linearGradient2733"
       x1="404.01999"
       gradientUnits="userSpaceOnUse"
       y1="366.20001"
       gradientTransform="translate(-103.04,-290.92)"
       x2="404.01999"
       y2="589.71002">
      <stop
         id="stop3274"
         stop-color="#fff"
         stop-opacity=".375"
         offset="0" />
      <stop
         id="stop3276"
         stop-color="#fff"
         stop-opacity="0"
         offset="1" />
    </linearGradient>
    <radialGradient
       inkscape:collect="always"
       xlink:href="#radialGradient2735"
       id="radialGradient3096"
       gradientUnits="userSpaceOnUse"
       gradientTransform="matrix(-0.020617,1.022,-0.9998,-0.020169,-37.572,928.95)"
       cx="-468.78"
       cy="440.95999"
       r="128.57001" />
    <radialGradient
       id="radialGradient2735"
       gradientUnits="userSpaceOnUse"
       cy="440.95999"
       cx="-468.78"
       gradientTransform="matrix(-0.020617,1.022,-0.9998,-0.020169,-37.572,928.95)"
       r="128.57001">
      <stop
         id="stop2441"
         stop-color="#ff0"
         offset="0" />
      <stop
         id="stop2451"
         stop-color="#ffd400"
         offset=".5" />
      <stop
         id="stop2443"
         stop-color="#ffa900"
         offset="1" />
    </radialGradient>
    <filter
       color-interpolation-filters="sRGB"
       id="filter3227">
      <feGaussianBlur
         id="feGaussianBlur3229"
         stdDeviation="2.5714285" />
    </filter>
    <linearGradient
       inkscape:collect="always"
       xlink:href="#linearGradient3751"
       id="linearGradient3098"
       gradientUnits="userSpaceOnUse"
       x1="369.72"
       y1="452.32999"
       x2="389.92001"
       y2="549.44" />
    <linearGradient
       id="linearGradient3751">
      <stop
         id="stop3753"
         stop-color="#fff"
         offset="0" />
      <stop
         id="stop3755"
         stop-color="#fff"
         stop-opacity="0"
         offset="1" />
    </linearGradient>
    <linearGradient
       y2="549.44"
       x2="389.92001"
       y1="452.32999"
       x1="369.72"
       gradientUnits="userSpaceOnUse"
       id="linearGradient3275"
       xlink:href="#linearGradient3751"
       inkscape:collect="always" />
    <linearGradient
       inkscape:collect="always"
       xlink:href="#linearGradient2776"
       id="linearGradient3132"
       gradientUnits="userSpaceOnUse"
       gradientTransform="translate(533.36,20.203)"
       x1="-90.914001"
       y1="535.15997"
       x2="-83.844002"
       y2="670.52002" />
    <linearGradient
       id="linearGradient2776"
       x1="-90.914001"
       gradientUnits="userSpaceOnUse"
       y1="535.15997"
       gradientTransform="translate(533.36,20.203)"
       x2="-83.844002"
       y2="670.52002">
      <stop
         id="stop3343"
         stop-color="#96beff"
         offset="0" />
      <stop
         id="stop3345"
         stop-color="#09719f"
         offset="1" />
    </linearGradient>
    <linearGradient
       inkscape:collect="always"
       xlink:href="#linearGradient3751-1"
       id="linearGradient3134"
       gradientUnits="userSpaceOnUse"
       x1="-139.39999"
       y1="490.72"
       x2="-111.85"
       y2="632.14001" />
    <linearGradient
       id="linearGradient3751-1">
      <stop
         id="stop3753-7"
         stop-color="#fff"
         offset="0" />
      <stop
         id="stop3755-4"
         stop-color="#fff"
         stop-opacity="0"
         offset="1" />
    </linearGradient>
    <linearGradient
       inkscape:collect="always"
       xlink:href="#linearGradient2776"
       id="linearGradient3136"
       gradientUnits="userSpaceOnUse"
       gradientTransform="translate(533.36,20.203)"
       x1="-90.914001"
       y1="535.15997"
       x2="-83.844002"
       y2="670.52002" />
    <linearGradient
       id="linearGradient3353"
       x1="-90.914001"
       gradientUnits="userSpaceOnUse"
       y1="535.15997"
       gradientTransform="translate(533.36,20.203)"
       x2="-83.844002"
       y2="670.52002">
      <stop
         id="stop3355"
         stop-color="#96beff"
         offset="0" />
      <stop
         id="stop3357"
         stop-color="#09719f"
         offset="1" />
    </linearGradient>
    <linearGradient
       inkscape:collect="always"
       xlink:href="#linearGradient3751-1"
       id="linearGradient3138"
       gradientUnits="userSpaceOnUse"
       x1="-139.39999"
       y1="490.72"
       x2="-111.85"
       y2="632.14001" />
    <linearGradient
       id="linearGradient3360">
      <stop
         id="stop3362"
         stop-color="#fff"
         offset="0" />
      <stop
         id="stop3364"
         stop-color="#fff"
         stop-opacity="0"
         offset="1" />
    </linearGradient>
    <radialGradient
       id="radialGradient7778"
       gradientUnits="userSpaceOnUse"
       cy="-405.91"
       cx="97.468002"
       gradientTransform="matrix(0.021289,0,0,0.027586,323.37,-435.1)"
       r="358.45001">
      <stop
         id="stop9644"
         stop-color="#787974"
         offset="0" />
      <stop
         id="stop9646"
         stop-color="#787974"
         stop-opacity="0"
         offset="1" />
    </radialGradient>
    <linearGradient
       inkscape:collect="always"
       xlink:href="#linearGradient2776-6"
       id="linearGradient3106"
       gradientUnits="userSpaceOnUse"
       gradientTransform="translate(533.36,20.203)"
       x1="-90.914001"
       y1="535.15997"
       x2="-83.844002"
       y2="670.52002" />
    <linearGradient
       id="linearGradient2776-6"
       x1="-90.914001"
       gradientUnits="userSpaceOnUse"
       y1="535.15997"
       gradientTransform="translate(533.36,20.203)"
       x2="-83.844002"
       y2="670.52002">
      <stop
         id="stop3343-1"
         stop-color="#96beff"
         offset="0" />
      <stop
         id="stop3345-4"
         stop-color="#09719f"
         offset="1" />
    </linearGradient>
    <linearGradient
       inkscape:collect="always"
       xlink:href="#linearGradient3751-15"
       id="linearGradient3108"
       gradientUnits="userSpaceOnUse"
       x1="-139.39999"
       y1="490.72"
       x2="-111.85"
       y2="632.14001" />
    <linearGradient
       id="linearGradient3751-15">
      <stop
         id="stop3753-2"
         stop-color="#fff"
         offset="0" />
      <stop
         id="stop3755-7"
         stop-color="#fff"
         stop-opacity="0"
         offset="1" />
    </linearGradient>
    <linearGradient
       y2="632.14001"
       x2="-111.85"
       y1="490.72"
       x1="-139.39999"
       gradientUnits="userSpaceOnUse"
       id="linearGradient3189"
       xlink:href="#linearGradient3751-15"
       inkscape:collect="always" />
  </defs>
  <sodipodi:namedview
     id="base"
     pagecolor="#ffffff"
     bordercolor="#666666"
     borderopacity="1.0"
     inkscape:pageopacity="0.0"
     inkscape:pageshadow="2"
     inkscape:zoom="2.8"
     inkscape:cx="112.56975"
     inkscape:cy="53.993365"
     inkscape:document-units="px"
     inkscape:current-layer="layer1"
     showgrid="false"
     width="128px"
     inkscape:window-width="1191"
     inkscape:window-height="734"
     inkscape:window-x="449"
     inkscape:window-y="167"
     inkscape:window-maximized="0" />
  <metadata
     id="metadata3237">
    <rdf:RDF>
      <cc:Work
         rdf:about="">
        <dc:format>image/svg+xml</dc:format>
        <dc:type
           rdf:resource="http://purl.org/dc/dcmitype/StillImage" />
        <dc:title></dc:title>
      </cc:Work>
    </rdf:RDF>
  </metadata>
  <g
     inkscape:label="Layer 1"
     inkscape:groupmode="layer"
     id="layer1"
     transform="translate(0,-956.36214)">
    <path
       style="fill:#ffcc00;stroke:#000000;stroke-width:0.75987226"
       inkscape:connector-curvature="0"
       d="m 20.357152,974.95922 -6.684596,-4.07899 -4.0999666,6.67092 1.8142706,-7.61772 -7.6116395,-1.83813 7.8046475,-0.62842 -0.603339,-7.80692 3.009854,7.22881 7.238391,-2.98683 -5.944936,5.09639 5.077466,5.96112 z"
       id="path5295" />
    <path
       style="fill:#ffcc00;stroke:#000000;stroke-width:0.75987226"
       inkscape:connector-curvature="0"
       d="m 98.92858,975.85866 -6.68459,-4.07899 -4.09997,6.67092 1.81427,-7.61772 -7.611638,-1.83813 7.804648,-0.62842 -0.60334,-7.80692 3.00985,7.22881 7.2384,-2.98683 -5.94494,5.09639 5.07747,5.96112 z"
       id="path5295-7" />
    <path
       style="fill:#ffcc00;stroke:#000000;stroke-width:0.75987226"
       inkscape:connector-curvature="0"
       d="m 122.50001,1010.8587 -6.68459,-4.079 -4.09997,6.6709 1.81427,-7.6177 -7.61164,-1.8382 7.80465,-0.6284 -0.60334,-7.8069 3.00985,7.2288 7.23839,-2.98682 -5.94493,5.09642 5.07746,5.9611 z"
       id="path5295-4" />
    <g
       style="fill-rule:evenodd"
       id="g2751"
       transform="matrix(0.22072909,0,0,0.22072909,-16.006751,884.03165)">
      <path
         id="path2753"
         d="m 417.2,525.08 c -32.47,0 -61.35,15.49 -79.62,39.5 -3.99,-0.75 -8.11,-1.13 -12.31,-1.13 -36.81,0 -66.66,29.86 -66.66,66.66 0,36.8 29.85,66.69 66.66,66.69 6.75,0 13.26,-1.01 19.4,-2.88 18.23,19.18 44.01,31.16 72.53,31.16 15.97,0 31.05,-3.75 44.44,-10.41 13.39,6.66 28.48,10.41 44.44,10.41 32.87,0 62.05,-15.9 80.28,-40.41 29.9,-0.25 54.06,-24.61 54.06,-54.56 0,-27.61 -20.53,-50.43 -47.15,-54.03 -17.15,-30.44 -49.78,-51 -87.19,-51 -15.97,0 -31.05,3.74 -44.44,10.4 -13.39,-6.66 -28.47,-10.4 -44.44,-10.4 z"
         style="fill:url(#linearGradient3106)"
         inkscape:connector-curvature="0" />
      <path
         id="path2755"
         transform="translate(531.34,16.162)"
         d="m -116.16,516.81 c -28.49,0 -54.19,13.85 -70.12,34.78 -2.77,3.65 -7.19,5.37 -11.69,4.53 -3.26,-0.6 -6.64,-0.93 -10.12,-0.93 -29.08,0 -54.72,25.64 -54.72,54.72 0,3.83 0.29,5.13 0.19,3.53 0.87,13.73 10.87,25.15 24.37,27.81 32.07,6.34 75.55,3.48 127.22,-9.34 41.694,-10.35 86.569,-26.18 131.12,-44 9.988,-4.01 17.103,-13 18.697,-23.64 1.594,-10.64 -2.571,-21.33 -10.943,-28.08 -14.971,-12.06 -34.361,-19.38 -55.125,-19.38 -13.952,0 -27.419,3.34 -39.125,9.16 -3.372,1.68 -7.254,1.68 -10.625,0 -11.707,-5.82 -25.169,-9.16 -39.129,-9.16 z"
         style="fill:url(#linearGradient3189)"
         inkscape:connector-curvature="0" />
    </g>
  </g>
</svg>
