<?xml version="1.0" encoding="UTF-8" standalone="no"?>
<!-- Created with Inkscape (http://www.inkscape.org/) -->

<svg
   xmlns:dc="http://purl.org/dc/elements/1.1/"
   xmlns:cc="http://creativecommons.org/ns#"
   xmlns:rdf="http://www.w3.org/1999/02/22-rdf-syntax-ns#"
   xmlns:svg="http://www.w3.org/2000/svg"
   xmlns="http://www.w3.org/2000/svg"
   xmlns:xlink="http://www.w3.org/1999/xlink"
   xmlns:sodipodi="http://sodipodi.sourceforge.net/DTD/sodipodi-0.dtd"
   xmlns:inkscape="http://www.inkscape.org/namespaces/inkscape"
   width="128"
   height="96"
   id="svg3232"
   version="1.1"
   inkscape:version="0.48.4 r9939"
   sodipodi:docname="09.svg">
  <defs
     id="defs3234">
    <radialGradient
       id="radialGradient2731"
       gradientUnits="userSpaceOnUse"
       cy="404.35999"
       cx="377.14001"
       gradientTransform="matrix(1.2653e-7,-1.0008,1.0527,1.3251e-7,-59.965,792.66)"
       r="216.8">
      <stop
         id="stop2431"
         stop-color="#fffdbc"
         offset="0" />
      <stop
         id="stop2433"
         stop-color="#fcff00"
         offset="1" />
    </radialGradient>
    <linearGradient
       id="linearGradient2733"
       x1="404.01999"
       gradientUnits="userSpaceOnUse"
       y1="366.20001"
       gradientTransform="translate(-103.04,-290.92)"
       x2="404.01999"
       y2="589.71002">
      <stop
         id="stop3274"
         stop-color="#fff"
         stop-opacity=".375"
         offset="0" />
      <stop
         id="stop3276"
         stop-color="#fff"
         stop-opacity="0"
         offset="1" />
    </linearGradient>
    <radialGradient
       id="radialGradient2735"
       gradientUnits="userSpaceOnUse"
       cy="440.95999"
       cx="-468.78"
       gradientTransform="matrix(-0.020617,1.022,-0.9998,-0.020169,-37.572,928.95)"
       r="128.57001">
      <stop
         id="stop2441"
         stop-color="#ff0"
         offset="0" />
      <stop
         id="stop2451"
         stop-color="#ffd400"
         offset=".5" />
      <stop
         id="stop2443"
         stop-color="#ffa900"
         offset="1" />
    </radialGradient>
    <filter
       color-interpolation-filters="sRGB"
       id="filter3227">
      <feGaussianBlur
         id="feGaussianBlur3229"
         stdDeviation="2.5714285" />
    </filter>
    <linearGradient
       inkscape:collect="always"
       xlink:href="#linearGradient3751"
       id="linearGradient3098"
       gradientUnits="userSpaceOnUse"
       x1="369.72"
       y1="452.32999"
       x2="389.92001"
       y2="549.44" />
    <linearGradient
       id="linearGradient3751">
      <stop
         id="stop3753"
         stop-color="#fff"
         offset="0" />
      <stop
         id="stop3755"
         stop-color="#fff"
         stop-opacity="0"
         offset="1" />
    </linearGradient>
    <linearGradient
       id="linearGradient2776"
       x1="-90.914001"
       gradientUnits="userSpaceOnUse"
       y1="535.15997"
       gradientTransform="translate(533.36,20.203)"
       x2="-83.844002"
       y2="670.52002">
      <stop
         id="stop3343"
         stop-color="#96beff"
         offset="0" />
      <stop
         id="stop3345"
         stop-color="#09719f"
         offset="1" />
    </linearGradient>
    <linearGradient
       id="linearGradient3751-1">
      <stop
         id="stop3753-7"
         stop-color="#fff"
         offset="0" />
      <stop
         id="stop3755-4"
         stop-color="#fff"
         stop-opacity="0"
         offset="1" />
    </linearGradient>
    <linearGradient
       id="linearGradient3353"
       x1="-90.914001"
       gradientUnits="userSpaceOnUse"
       y1="535.15997"
       gradientTransform="translate(533.36,20.203)"
       x2="-83.844002"
       y2="670.52002">
      <stop
         id="stop3355"
         stop-color="#96beff"
         offset="0" />
      <stop
         id="stop3357"
         stop-color="#09719f"
         offset="1" />
    </linearGradient>
    <linearGradient
       id="linearGradient3360">
      <stop
         id="stop3362"
         stop-color="#fff"
         offset="0" />
      <stop
         id="stop3364"
         stop-color="#fff"
         stop-opacity="0"
         offset="1" />
    </linearGradient>
    <radialGradient
       id="radialGradient2731-0"
       gradientUnits="userSpaceOnUse"
       cy="404.35999"
       cx="377.14001"
       gradientTransform="matrix(1.2653e-7,-1.0008,1.0527,1.3251e-7,-59.965,792.66)"
       r="216.8">
      <stop
         id="stop2431-9"
         stop-color="#fffdbc"
         offset="0" />
      <stop
         id="stop2433-4"
         stop-color="#fcff00"
         offset="1" />
    </radialGradient>
    <linearGradient
       id="linearGradient2733-8"
       x1="404.01999"
       gradientUnits="userSpaceOnUse"
       y1="366.20001"
       gradientTransform="translate(-103.04,-290.92)"
       x2="404.01999"
       y2="589.71002">
      <stop
         id="stop3274-8"
         stop-color="#fff"
         stop-opacity=".375"
         offset="0" />
      <stop
         id="stop3276-2"
         stop-color="#fff"
         stop-opacity="0"
         offset="1" />
    </linearGradient>
    <radialGradient
       id="radialGradient2735-4"
       gradientUnits="userSpaceOnUse"
       cy="440.95999"
       cx="-468.78"
       gradientTransform="matrix(-0.020617,1.022,-0.9998,-0.020169,-37.572,928.95)"
       r="128.57001">
      <stop
         id="stop2441-5"
         stop-color="#ff0"
         offset="0" />
      <stop
         id="stop2451-5"
         stop-color="#ffd400"
         offset=".5" />
      <stop
         id="stop2443-1"
         stop-color="#ffa900"
         offset="1" />
    </radialGradient>
    <filter
       color-interpolation-filters="sRGB"
       id="filter3227-7">
      <feGaussianBlur
         id="feGaussianBlur3229-1"
         stdDeviation="2.5714285" />
    </filter>
    <linearGradient
       id="linearGradient2737"
       x1="369.72"
       xlink:href="#linearGradient3751-15"
       gradientUnits="userSpaceOnUse"
       x2="389.92001"
       y1="452.32999"
       y2="549.44" />
    <linearGradient
       id="linearGradient3751-15">
      <stop
         id="stop3753-2"
         stop-color="#fff"
         offset="0" />
      <stop
         id="stop3755-7"
         stop-color="#fff"
         stop-opacity="0"
         offset="1" />
    </linearGradient>
    <linearGradient
       id="linearGradient2776-6"
       x1="-90.914001"
       gradientUnits="userSpaceOnUse"
       y1="535.15997"
       gradientTransform="translate(533.36,20.203)"
       x2="-83.844002"
       y2="670.52002">
      <stop
         id="stop3343-1"
         stop-color="#96beff"
         offset="0" />
      <stop
         id="stop3345-4"
         stop-color="#09719f"
         offset="1" />
    </linearGradient>
    <linearGradient
       id="linearGradient3458">
      <stop
         id="stop3460"
         stop-color="#fff"
         offset="0" />
      <stop
         id="stop3462"
         stop-color="#fff"
         stop-opacity="0"
         offset="1" />
    </linearGradient>
    <linearGradient
       id="linearGradient2776-3"
       x1="-90.914001"
       gradientUnits="userSpaceOnUse"
       y1="535.15997"
       gradientTransform="translate(533.36,20.203)"
       x2="-83.844002"
       y2="670.52002">
      <stop
         id="stop3343-2"
         stop-color="#96beff"
         offset="0" />
      <stop
         id="stop3345-2"
         stop-color="#09719f"
         offset="1" />
    </linearGradient>
    <linearGradient
       id="linearGradient3751-6">
      <stop
         id="stop3753-8"
         stop-color="#fff"
         offset="0" />
      <stop
         id="stop3755-5"
         stop-color="#fff"
         stop-opacity="0"
         offset="1" />
    </linearGradient>
    <linearGradient
       id="linearGradient4403"
       x1="-90.914001"
       gradientUnits="userSpaceOnUse"
       y1="535.15997"
       gradientTransform="translate(533.36,20.203)"
       x2="-83.844002"
       y2="670.52002">
      <stop
         id="stop4405"
         stop-color="#96beff"
         offset="0" />
      <stop
         id="stop4407"
         stop-color="#09719f"
         offset="1" />
    </linearGradient>
    <linearGradient
       id="linearGradient4410">
      <stop
         id="stop4412"
         stop-color="#fff"
         offset="0" />
      <stop
         id="stop4414"
         stop-color="#fff"
         stop-opacity="0"
         offset="1" />
    </linearGradient>
    <linearGradient
       id="linearGradient4171"
       x1="-90.914001"
       gradientUnits="userSpaceOnUse"
       y1="535.15997"
       gradientTransform="matrix(0.46448,0,0,0.46448,533.8,403.14)"
       x2="-83.844002"
       y2="670.52002">
      <stop
         id="stop4049"
         stop-color="#b3c5e3"
         offset="0" />
      <stop
         id="stop4051"
         stop-color="#375f71"
         offset="1" />
    </linearGradient>
    <linearGradient
       inkscape:collect="always"
       xlink:href="#linearGradient3751-18"
       id="linearGradient3155"
       gradientUnits="userSpaceOnUse"
       x1="-139.39999"
       y1="490.72"
       x2="-111.85"
       y2="632.14001"
       gradientTransform="matrix(0.46448,0,0,0.46448,382.94,227.57)" />
    <linearGradient
       id="linearGradient3751-18">
      <stop
         id="stop3753-9"
         stop-color="#fff"
         offset="0" />
      <stop
         id="stop3755-2"
         stop-color="#fff"
         stop-opacity="0"
         offset="1" />
    </linearGradient>
    <linearGradient
       id="linearGradient2776-4"
       x1="-90.914001"
       gradientUnits="userSpaceOnUse"
       y1="535.15997"
       gradientTransform="translate(533.36,20.203)"
       x2="-83.844002"
       y2="670.52002">
      <stop
         id="stop3343-4"
         stop-color="#96beff"
         offset="0" />
      <stop
         id="stop3345-6"
         stop-color="#09719f"
         offset="1" />
    </linearGradient>
    <linearGradient
       id="linearGradient3751-0">
      <stop
         id="stop3753-6"
         stop-color="#fff"
         offset="0" />
      <stop
         id="stop3755-6"
         stop-color="#fff"
         stop-opacity="0"
         offset="1" />
    </linearGradient>
    <linearGradient
       id="linearGradient4563">
      <stop
         id="stop4565"
         stop-color="#fff"
         offset="0" />
      <stop
         id="stop4567"
         stop-color="#fff"
         stop-opacity="0"
         offset="1" />
    </linearGradient>
    <linearGradient
       id="linearGradient4009"
       x1="165.27"
       gradientUnits="userSpaceOnUse"
       y1="568.71997"
       gradientTransform="translate(-4.0406,-10.102)"
       x2="222.23"
       y2="635.16998">
      <stop
         id="stop2626"
         stop-color="#008080"
         stop-opacity=".65441"
         offset="0" />
      <stop
         id="stop2628"
         stop-color="#003434"
         stop-opacity=".71324"
         offset="1" />
    </linearGradient>
    <linearGradient
       id="linearGradient4574">
      <stop
         id="stop4576"
         stop-color="#fff"
         offset="0" />
      <stop
         id="stop4578"
         stop-color="#fff"
         stop-opacity="0"
         offset="1" />
    </linearGradient>
    <linearGradient
       id="linearGradient4581"
       x1="165.27"
       gradientUnits="userSpaceOnUse"
       y1="568.71997"
       gradientTransform="translate(-4.0406,-10.102)"
       x2="222.23"
       y2="635.16998">
      <stop
         id="stop4583"
         stop-color="#008080"
         stop-opacity=".65441"
         offset="0" />
      <stop
         id="stop4585"
         stop-color="#003434"
         stop-opacity=".71324"
         offset="1" />
    </linearGradient>
    <linearGradient
       id="linearGradient4588">
      <stop
         id="stop4590"
         stop-color="#fff"
         offset="0" />
      <stop
         id="stop4592"
         stop-color="#fff"
         stop-opacity="0"
         offset="1" />
    </linearGradient>
    <linearGradient
       id="linearGradient4595"
       x1="165.27"
       gradientUnits="userSpaceOnUse"
       y1="568.71997"
       gradientTransform="translate(-4.0406,-10.102)"
       x2="222.23"
       y2="635.16998">
      <stop
         id="stop4597"
         stop-color="#008080"
         stop-opacity=".65441"
         offset="0" />
      <stop
         id="stop4599"
         stop-color="#003434"
         stop-opacity=".71324"
         offset="1" />
    </linearGradient>
    <linearGradient
       id="linearGradient4602">
      <stop
         id="stop4604"
         stop-color="#fff"
         offset="0" />
      <stop
         id="stop4606"
         stop-color="#fff"
         stop-opacity="0"
         offset="1" />
    </linearGradient>
    <linearGradient
       id="linearGradient4609"
       x1="165.27"
       gradientUnits="userSpaceOnUse"
       y1="568.71997"
       gradientTransform="translate(-4.0406,-10.102)"
       x2="222.23"
       y2="635.16998">
      <stop
         id="stop4611"
         stop-color="#008080"
         stop-opacity=".65441"
         offset="0" />
      <stop
         id="stop4613"
         stop-color="#003434"
         stop-opacity=".71324"
         offset="1" />
    </linearGradient>
    <linearGradient
       id="linearGradient4007"
       x1="140.41"
       xlink:href="#linearGradient3751-0"
       gradientUnits="userSpaceOnUse"
       x2="151.98"
       y1="489.06"
       y2="588.28003" />
    <linearGradient
       id="linearGradient4616">
      <stop
         id="stop4618"
         stop-color="#fff"
         offset="0" />
      <stop
         id="stop4620"
         stop-color="#fff"
         stop-opacity="0"
         offset="1" />
    </linearGradient>
    <linearGradient
       id="linearGradient4623"
       x1="165.27"
       gradientUnits="userSpaceOnUse"
       y1="568.71997"
       gradientTransform="translate(-4.0406,-10.102)"
       x2="222.23"
       y2="635.16998">
      <stop
         id="stop4625"
         stop-color="#008080"
         stop-opacity=".65441"
         offset="0" />
      <stop
         id="stop4627"
         stop-color="#003434"
         stop-opacity=".71324"
         offset="1" />
    </linearGradient>
    <linearGradient
       id="linearGradient3751-0-8">
      <stop
         id="stop3753-6-4"
         stop-color="#fff"
         offset="0" />
      <stop
         id="stop3755-6-9"
         stop-color="#fff"
         stop-opacity="0"
         offset="1" />
    </linearGradient>
    <linearGradient
       id="linearGradient4009-3"
       x1="165.27"
       gradientUnits="userSpaceOnUse"
       y1="568.71997"
       gradientTransform="translate(-4.0406,-10.102)"
       x2="222.23"
       y2="635.16998">
      <stop
         id="stop2626-7"
         stop-color="#008080"
         stop-opacity=".65441"
         offset="0" />
      <stop
         id="stop2628-8"
         stop-color="#003434"
         stop-opacity=".71324"
         offset="1" />
    </linearGradient>
    <linearGradient
       id="linearGradient4999">
      <stop
         id="stop5001"
         stop-color="#fff"
         offset="0" />
      <stop
         id="stop5003"
         stop-color="#fff"
         stop-opacity="0"
         offset="1" />
    </linearGradient>
    <linearGradient
       id="linearGradient5006"
       x1="165.27"
       gradientUnits="userSpaceOnUse"
       y1="568.71997"
       gradientTransform="translate(-4.0406,-10.102)"
       x2="222.23"
       y2="635.16998">
      <stop
         id="stop5008"
         stop-color="#008080"
         stop-opacity=".65441"
         offset="0" />
      <stop
         id="stop5010"
         stop-color="#003434"
         stop-opacity=".71324"
         offset="1" />
    </linearGradient>
    <linearGradient
       id="linearGradient5013">
      <stop
         id="stop5015"
         stop-color="#fff"
         offset="0" />
      <stop
         id="stop5017"
         stop-color="#fff"
         stop-opacity="0"
         offset="1" />
    </linearGradient>
    <linearGradient
       id="linearGradient5020"
       x1="165.27"
       gradientUnits="userSpaceOnUse"
       y1="568.71997"
       gradientTransform="translate(-4.0406,-10.102)"
       x2="222.23"
       y2="635.16998">
      <stop
         id="stop5022"
         stop-color="#008080"
         stop-opacity=".65441"
         offset="0" />
      <stop
         id="stop5024"
         stop-color="#003434"
         stop-opacity=".71324"
         offset="1" />
    </linearGradient>
    <linearGradient
       id="linearGradient5027">
      <stop
         id="stop5029"
         stop-color="#fff"
         offset="0" />
      <stop
         id="stop5031"
         stop-color="#fff"
         stop-opacity="0"
         offset="1" />
    </linearGradient>
    <linearGradient
       id="linearGradient5034"
       x1="165.27"
       gradientUnits="userSpaceOnUse"
       y1="568.71997"
       gradientTransform="translate(-4.0406,-10.102)"
       x2="222.23"
       y2="635.16998">
      <stop
         id="stop5036"
         stop-color="#008080"
         stop-opacity=".65441"
         offset="0" />
      <stop
         id="stop5038"
         stop-color="#003434"
         stop-opacity=".71324"
         offset="1" />
    </linearGradient>
    <linearGradient
       id="linearGradient4007-9"
       x1="140.41"
       xlink:href="#linearGradient3751-0-8"
       gradientUnits="userSpaceOnUse"
       x2="151.98"
       y1="489.06"
       y2="588.28003" />
    <linearGradient
       id="linearGradient5041">
      <stop
         id="stop5043"
         stop-color="#fff"
         offset="0" />
      <stop
         id="stop5045"
         stop-color="#fff"
         stop-opacity="0"
         offset="1" />
    </linearGradient>
    <linearGradient
       id="linearGradient5048"
       x1="165.27"
       gradientUnits="userSpaceOnUse"
       y1="568.71997"
       gradientTransform="translate(-4.0406,-10.102)"
       x2="222.23"
       y2="635.16998">
      <stop
         id="stop5050"
         stop-color="#008080"
         stop-opacity=".65441"
         offset="0" />
      <stop
         id="stop5052"
         stop-color="#003434"
         stop-opacity=".71324"
         offset="1" />
    </linearGradient>
    <linearGradient
       inkscape:collect="always"
       xlink:href="#linearGradient2776-7"
       id="linearGradient3110"
       gradientUnits="userSpaceOnUse"
       gradientTransform="translate(533.36,20.203)"
       x1="-90.914001"
       y1="535.15997"
       x2="-83.844002"
       y2="670.52002" />
    <linearGradient
       id="linearGradient2776-7"
       x1="-90.914001"
       gradientUnits="userSpaceOnUse"
       y1="535.15997"
       gradientTransform="translate(533.36,20.203)"
       x2="-83.844002"
       y2="670.52002">
      <stop
         id="stop3343-5"
         stop-color="#96beff"
         offset="0" />
      <stop
         id="stop3345-41"
         stop-color="#09719f"
         offset="1" />
    </linearGradient>
    <linearGradient
       inkscape:collect="always"
       xlink:href="#linearGradient3751-2"
       id="linearGradient3112"
       gradientUnits="userSpaceOnUse"
       x1="-139.39999"
       y1="490.72"
       x2="-111.85"
       y2="632.14001" />
    <linearGradient
       id="linearGradient3751-2">
      <stop
         id="stop3753-0"
         stop-color="#fff"
         offset="0" />
      <stop
         id="stop3755-0"
         stop-color="#fff"
         stop-opacity="0"
         offset="1" />
    </linearGradient>
    <linearGradient
       inkscape:collect="always"
       xlink:href="#linearGradient3751-2"
       id="linearGradient3114-14"
       gradientUnits="userSpaceOnUse"
       x1="140.41"
       y1="489.06"
       x2="151.98"
       y2="588.28003" />
    <linearGradient
       id="linearGradient5277">
      <stop
         id="stop5279"
         stop-color="#fff"
         offset="0" />
      <stop
         id="stop5281"
         stop-color="#fff"
         stop-opacity="0"
         offset="1" />
    </linearGradient>
    <linearGradient
       inkscape:collect="always"
       xlink:href="#linearGradient4009-7"
       id="linearGradient3116-60"
       gradientUnits="userSpaceOnUse"
       gradientTransform="translate(-4.0406,-10.102)"
       x1="165.27"
       y1="568.71997"
       x2="222.23"
       y2="635.16998" />
    <linearGradient
       id="linearGradient4009-7"
       x1="165.27"
       gradientUnits="userSpaceOnUse"
       y1="568.71997"
       gradientTransform="translate(-4.0406,-10.102)"
       x2="222.23"
       y2="635.16998">
      <stop
         id="stop2626-1"
         stop-color="#008080"
         stop-opacity=".65441"
         offset="0" />
      <stop
         id="stop2628-7"
         stop-color="#003434"
         stop-opacity=".71324"
         offset="1" />
    </linearGradient>
    <linearGradient
       inkscape:collect="always"
       xlink:href="#linearGradient3751-2"
       id="linearGradient3118-7"
       gradientUnits="userSpaceOnUse"
       x1="140.41"
       y1="489.06"
       x2="151.98"
       y2="588.28003" />
    <linearGradient
       id="linearGradient5288">
      <stop
         id="stop5290"
         stop-color="#fff"
         offset="0" />
      <stop
         id="stop5292"
         stop-color="#fff"
         stop-opacity="0"
         offset="1" />
    </linearGradient>
    <linearGradient
       inkscape:collect="always"
       xlink:href="#linearGradient4009-7"
       id="linearGradient3120-7"
       gradientUnits="userSpaceOnUse"
       gradientTransform="translate(-4.0406,-10.102)"
       x1="165.27"
       y1="568.71997"
       x2="222.23"
       y2="635.16998" />
    <linearGradient
       id="linearGradient5295"
       x1="165.27"
       gradientUnits="userSpaceOnUse"
       y1="568.71997"
       gradientTransform="translate(-4.0406,-10.102)"
       x2="222.23"
       y2="635.16998">
      <stop
         id="stop5297"
         stop-color="#008080"
         stop-opacity=".65441"
         offset="0" />
      <stop
         id="stop5299"
         stop-color="#003434"
         stop-opacity=".71324"
         offset="1" />
    </linearGradient>
    <linearGradient
       inkscape:collect="always"
       xlink:href="#linearGradient3751-2"
       id="linearGradient3122-7"
       gradientUnits="userSpaceOnUse"
       x1="140.41"
       y1="489.06"
       x2="151.98"
       y2="588.28003" />
    <linearGradient
       id="linearGradient5302">
      <stop
         id="stop5304"
         stop-color="#fff"
         offset="0" />
      <stop
         id="stop5306"
         stop-color="#fff"
         stop-opacity="0"
         offset="1" />
    </linearGradient>
    <linearGradient
       inkscape:collect="always"
       xlink:href="#linearGradient4009-7"
       id="linearGradient3124-3"
       gradientUnits="userSpaceOnUse"
       gradientTransform="translate(-4.0406,-10.102)"
       x1="165.27"
       y1="568.71997"
       x2="222.23"
       y2="635.16998" />
    <linearGradient
       id="linearGradient5309"
       x1="165.27"
       gradientUnits="userSpaceOnUse"
       y1="568.71997"
       gradientTransform="translate(-4.0406,-10.102)"
       x2="222.23"
       y2="635.16998">
      <stop
         id="stop5311"
         stop-color="#008080"
         stop-opacity=".65441"
         offset="0" />
      <stop
         id="stop5313"
         stop-color="#003434"
         stop-opacity=".71324"
         offset="1" />
    </linearGradient>
    <linearGradient
       inkscape:collect="always"
       xlink:href="#linearGradient3751-2"
       id="linearGradient3126-35"
       gradientUnits="userSpaceOnUse"
       x1="140.41"
       y1="489.06"
       x2="151.98"
       y2="588.28003" />
    <linearGradient
       id="linearGradient5316">
      <stop
         id="stop5318"
         stop-color="#fff"
         offset="0" />
      <stop
         id="stop5320"
         stop-color="#fff"
         stop-opacity="0"
         offset="1" />
    </linearGradient>
    <linearGradient
       inkscape:collect="always"
       xlink:href="#linearGradient4009-7"
       id="linearGradient3128-9"
       gradientUnits="userSpaceOnUse"
       gradientTransform="translate(-4.0406,-10.102)"
       x1="165.27"
       y1="568.71997"
       x2="222.23"
       y2="635.16998" />
    <linearGradient
       id="linearGradient5323"
       x1="165.27"
       gradientUnits="userSpaceOnUse"
       y1="568.71997"
       gradientTransform="translate(-4.0406,-10.102)"
       x2="222.23"
       y2="635.16998">
      <stop
         id="stop5325"
         stop-color="#008080"
         stop-opacity=".65441"
         offset="0" />
      <stop
         id="stop5327"
         stop-color="#003434"
         stop-opacity=".71324"
         offset="1" />
    </linearGradient>
    <linearGradient
       id="linearGradient4007-98"
       x1="140.41"
       xlink:href="#linearGradient3751-2"
       gradientUnits="userSpaceOnUse"
       x2="151.98"
       y1="489.06"
       y2="588.28003" />
    <linearGradient
       id="linearGradient5330">
      <stop
         id="stop5332"
         stop-color="#fff"
         offset="0" />
      <stop
         id="stop5334"
         stop-color="#fff"
         stop-opacity="0"
         offset="1" />
    </linearGradient>
    <linearGradient
       inkscape:collect="always"
       xlink:href="#linearGradient4009-7"
       id="linearGradient3130-1"
       gradientUnits="userSpaceOnUse"
       gradientTransform="translate(-4.0406,-10.102)"
       x1="165.27"
       y1="568.71997"
       x2="222.23"
       y2="635.16998" />
    <linearGradient
       id="linearGradient5337"
       x1="165.27"
       gradientUnits="userSpaceOnUse"
       y1="568.71997"
       gradientTransform="translate(-4.0406,-10.102)"
       x2="222.23"
       y2="635.16998">
      <stop
         id="stop5339"
         stop-color="#008080"
         stop-opacity=".65441"
         offset="0" />
      <stop
         id="stop5341"
         stop-color="#003434"
         stop-opacity=".71324"
         offset="1" />
    </linearGradient>
    <linearGradient
       inkscape:collect="always"
       xlink:href="#linearGradient3751-2"
       id="linearGradient5543"
       gradientUnits="userSpaceOnUse"
       x1="140.41"
       y1="489.06"
       x2="151.98"
       y2="588.28003" />
    <linearGradient
       inkscape:collect="always"
       xlink:href="#linearGradient4009-7"
       id="linearGradient5545"
       gradientUnits="userSpaceOnUse"
       gradientTransform="translate(-4.0406,-10.102)"
       x1="165.27"
       y1="568.71997"
       x2="222.23"
       y2="635.16998" />
    <linearGradient
       inkscape:collect="always"
       xlink:href="#linearGradient3751-2"
       id="linearGradient5547"
       gradientUnits="userSpaceOnUse"
       x1="140.41"
       y1="489.06"
       x2="151.98"
       y2="588.28003" />
    <linearGradient
       inkscape:collect="always"
       xlink:href="#linearGradient4009-7"
       id="linearGradient5549"
       gradientUnits="userSpaceOnUse"
       gradientTransform="translate(-4.0406,-10.102)"
       x1="165.27"
       y1="568.71997"
       x2="222.23"
       y2="635.16998" />
    <linearGradient
       inkscape:collect="always"
       xlink:href="#linearGradient3751-2"
       id="linearGradient5551"
       gradientUnits="userSpaceOnUse"
       x1="140.41"
       y1="489.06"
       x2="151.98"
       y2="588.28003" />
    <linearGradient
       inkscape:collect="always"
       xlink:href="#linearGradient4009-7"
       id="linearGradient5553"
       gradientUnits="userSpaceOnUse"
       gradientTransform="translate(-4.0406,-10.102)"
       x1="165.27"
       y1="568.71997"
       x2="222.23"
       y2="635.16998" />
    <linearGradient
       inkscape:collect="always"
       xlink:href="#linearGradient3751-2"
       id="linearGradient5555"
       gradientUnits="userSpaceOnUse"
       x1="140.41"
       y1="489.06"
       x2="151.98"
       y2="588.28003" />
    <linearGradient
       inkscape:collect="always"
       xlink:href="#linearGradient4009-7"
       id="linearGradient5557"
       gradientUnits="userSpaceOnUse"
       gradientTransform="translate(-4.0406,-10.102)"
       x1="165.27"
       y1="568.71997"
       x2="222.23"
       y2="635.16998" />
    <linearGradient
       inkscape:collect="always"
       xlink:href="#linearGradient3751-2"
       id="linearGradient5559"
       gradientUnits="userSpaceOnUse"
       x1="140.41"
       y1="489.06"
       x2="151.98"
       y2="588.28003" />
    <linearGradient
       inkscape:collect="always"
       xlink:href="#linearGradient4009-7"
       id="linearGradient5561"
       gradientUnits="userSpaceOnUse"
       gradientTransform="translate(-4.0406,-10.102)"
       x1="165.27"
       y1="568.71997"
       x2="222.23"
       y2="635.16998" />
  </defs>
  <sodipodi:namedview
     id="base"
     pagecolor="#ffffff"
     bordercolor="#666666"
     borderopacity="1.0"
     inkscape:pageopacity="0.0"
     inkscape:pageshadow="2"
     inkscape:zoom="1.979899"
     inkscape:cx="92.476345"
     inkscape:cy="29.612683"
     inkscape:document-units="px"
     inkscape:current-layer="g2757"
     showgrid="false"
     width="128px"
     inkscape:window-width="1191"
     inkscape:window-height="734"
     inkscape:window-x="849"
     inkscape:window-y="82"
     inkscape:window-maximized="0" />
  <metadata
     id="metadata3237">
    <rdf:RDF>
      <cc:Work
         rdf:about="">
        <dc:format>image/svg+xml</dc:format>
        <dc:type
           rdf:resource="http://purl.org/dc/dcmitype/StillImage" />
        <dc:title></dc:title>
      </cc:Work>
    </rdf:RDF>
  </metadata>
  <g
     inkscape:label="Layer 1"
     inkscape:groupmode="layer"
     id="layer1"
     transform="translate(0,-956.36214)">
    <g
       style="fill-rule:evenodd"
       transform="matrix(0.22072909,0,0,0.22072909,3.645363,952.79921)"
       id="g2757">
      <g
         style="fill-rule:evenodd"
         id="g2780"
         transform="matrix(1.3072669,0,0,1.3072669,-294.54592,-662.35378)">
        <path
           id="path2782"
           d="m 417.2,525.08 c -32.47,0 -61.35,15.49 -79.62,39.5 -3.99,-0.75 -8.11,-1.13 -12.31,-1.13 -36.81,0 -66.66,29.86 -66.66,66.66 0,36.8 29.85,66.69 66.66,66.69 6.75,0 13.26,-1.01 19.4,-2.88 18.23,19.18 44.01,31.16 72.53,31.16 15.97,0 31.05,-3.75 44.44,-10.41 13.39,6.66 28.48,10.41 44.44,10.41 32.87,0 62.05,-15.9 80.28,-40.41 29.9,-0.25 54.06,-24.61 54.06,-54.56 0,-27.61 -20.53,-50.43 -47.15,-54.03 -17.15,-30.44 -49.78,-51 -87.19,-51 -15.97,0 -31.05,3.74 -44.44,10.4 -13.39,-6.66 -28.47,-10.4 -44.44,-10.4 z"
           style="fill:url(#linearGradient3110)"
           inkscape:connector-curvature="0" />
        <path
           id="path2784"
           transform="translate(531.34,16.162)"
           d="m -116.16,516.81 c -28.49,0 -54.19,13.85 -70.12,34.78 -2.77,3.65 -7.19,5.37 -11.69,4.53 -3.26,-0.6 -6.64,-0.93 -10.12,-0.93 -29.08,0 -54.72,25.64 -54.72,54.72 0,3.83 0.29,5.13 0.19,3.53 0.87,13.73 10.87,25.15 24.37,27.81 32.07,6.34 75.55,3.48 127.22,-9.34 41.694,-10.35 86.569,-26.18 131.12,-44 9.988,-4.01 17.103,-13 18.697,-23.64 1.594,-10.64 -2.571,-21.33 -10.943,-28.08 -14.971,-12.06 -34.361,-19.38 -55.125,-19.38 -13.952,0 -27.419,3.34 -39.125,9.16 -3.372,1.68 -7.254,1.68 -10.625,0 -11.707,-5.82 -25.169,-9.16 -39.129,-9.16 z"
           style="fill:url(#linearGradient3112)"
           inkscape:connector-curvature="0" />
      </g>
      <g
         style="fill-rule:evenodd"
         transform="matrix(0.58454439,0,0,0.58454439,35.963372,15.013573)"
         id="g2788">
        <path
           style="fill:#008080"
           inkscape:connector-curvature="0"
           d="M 241.89,431.12 C 188.29,508.65 134,533.13 122.82,552.49 c -11.19,19.39 -5.21,50.65 17.01,63.48 22.21,12.82 53.78,-0.22 63.47,-17.01 9.63,-16.67 1.5,-80.78 38.59,-167.84 z"
           id="path2790" />
        <path
           inkscape:connector-curvature="0"
           style="fill:url(#linearGradient5543)"
           d="m 201.47,489.06 c -1.2,0.04 -2.34,0.53 -3.19,1.38 -13.66,13.7 -28.18,26.54 -43.37,38.44 -0.06,0.04 -0.11,0.08 -0.16,0.12 -10.41,8.85 -20.99,15.63 -27.91,25.66 -0.1,0.14 -0.19,0.28 -0.28,0.43 -4.37,8.1 -5.83,17.92 -3.84,26.75 0.08,0.35 0.19,0.68 0.34,1 0.86,1.8 2.1,3.11 3.6,4.07 1.49,0.96 3.45,1.96 6.25,0.93 0.18,-0.06 0.36,-0.13 0.53,-0.22 l 0.06,-0.03 v -0.03 c 11.21,-4.14 19.52,-14.01 28.22,-24 0.03,-0.04 0.06,-0.08 0.09,-0.12 16.91,-20.92 31.15,-43.71 43.97,-67.41 0.81,-1.49 0.76,-3.29 -0.13,-4.74 -0.89,-1.44 -2.49,-2.29 -4.18,-2.23 z"
           id="path2792" />
        <path
           inkscape:connector-curvature="0"
           style="fill:url(#linearGradient5545)"
           d="m 196.27,558.65 c -5.75,1.43 -6.49,9.12 -10.26,12.97 -6.46,10.58 -15.08,19.69 -24.05,27.87 -2.86,4.72 3.35,9.66 7.75,6.85 13.61,-3.94 28.77,-13.23 30.23,-28.71 0.12,-5.55 3.53,-11.71 0.96,-16.95 -1.01,-1.46 -2.87,-2.25 -4.63,-2.03 z"
           id="path2794" />
      </g>
      <g
         style="fill-rule:evenodd"
         transform="matrix(0.58454439,0,0,0.58454439,120.47818,62.55887)"
         id="g2796">
        <path
           style="fill:#008080"
           inkscape:connector-curvature="0"
           d="M 241.89,431.12 C 188.29,508.65 134,533.13 122.82,552.49 c -11.19,19.39 -5.21,50.65 17.01,63.48 22.21,12.82 53.78,-0.22 63.47,-17.01 9.63,-16.67 1.5,-80.78 38.59,-167.84 z"
           id="path2798" />
        <path
           inkscape:connector-curvature="0"
           style="fill:url(#linearGradient5547)"
           d="m 201.47,489.06 c -1.2,0.04 -2.34,0.53 -3.19,1.38 -13.66,13.7 -28.18,26.54 -43.37,38.44 -0.06,0.04 -0.11,0.08 -0.16,0.12 -10.41,8.85 -20.99,15.63 -27.91,25.66 -0.1,0.14 -0.19,0.28 -0.28,0.43 -4.37,8.1 -5.83,17.92 -3.84,26.75 0.08,0.35 0.19,0.68 0.34,1 0.86,1.8 2.1,3.11 3.6,4.07 1.49,0.96 3.45,1.96 6.25,0.93 0.18,-0.06 0.36,-0.13 0.53,-0.22 l 0.06,-0.03 v -0.03 c 11.21,-4.14 19.52,-14.01 28.22,-24 0.03,-0.04 0.06,-0.08 0.09,-0.12 16.91,-20.92 31.15,-43.71 43.97,-67.41 0.81,-1.49 0.76,-3.29 -0.13,-4.74 -0.89,-1.44 -2.49,-2.29 -4.18,-2.23 z"
           id="path2800" />
        <path
           inkscape:connector-curvature="0"
           style="fill:url(#linearGradient5549)"
           d="m 196.27,558.65 c -5.75,1.43 -6.49,9.12 -10.26,12.97 -6.46,10.58 -15.08,19.69 -24.05,27.87 -2.86,4.72 3.35,9.66 7.75,6.85 13.61,-3.94 28.77,-13.23 30.23,-28.71 0.12,-5.55 3.53,-11.71 0.96,-16.95 -1.01,-1.46 -2.87,-2.25 -4.63,-2.03 z"
           id="path2802" />
      </g>
      <g
         style="fill-rule:evenodd"
         transform="matrix(0.58454439,0,0,0.58454439,232.72011,83.684303)"
         id="g2804">
        <path
           style="fill:#008080"
           inkscape:connector-curvature="0"
           d="M 241.89,431.12 C 188.29,508.65 134,533.13 122.82,552.49 c -11.19,19.39 -5.21,50.65 17.01,63.48 22.21,12.82 53.78,-0.22 63.47,-17.01 9.63,-16.67 1.5,-80.78 38.59,-167.84 z"
           id="path2806" />
        <path
           inkscape:connector-curvature="0"
           style="fill:url(#linearGradient5551)"
           d="m 201.47,489.06 c -1.2,0.04 -2.34,0.53 -3.19,1.38 -13.66,13.7 -28.18,26.54 -43.37,38.44 -0.06,0.04 -0.11,0.08 -0.16,0.12 -10.41,8.85 -20.99,15.63 -27.91,25.66 -0.1,0.14 -0.19,0.28 -0.28,0.43 -4.37,8.1 -5.83,17.92 -3.84,26.75 0.08,0.35 0.19,0.68 0.34,1 0.86,1.8 2.1,3.11 3.6,4.07 1.49,0.96 3.45,1.96 6.25,0.93 0.18,-0.06 0.36,-0.13 0.53,-0.22 l 0.06,-0.03 v -0.03 c 11.21,-4.14 19.52,-14.01 28.22,-24 0.03,-0.04 0.06,-0.08 0.09,-0.12 16.91,-20.92 31.15,-43.71 43.97,-67.41 0.81,-1.49 0.76,-3.29 -0.13,-4.74 -0.89,-1.44 -2.49,-2.29 -4.18,-2.23 z"
           id="path2808" />
        <path
           inkscape:connector-curvature="0"
           style="fill:url(#linearGradient5553)"
           d="m 196.27,558.65 c -5.75,1.43 -6.49,9.12 -10.26,12.97 -6.46,10.58 -15.08,19.69 -24.05,27.87 -2.86,4.72 3.35,9.66 7.75,6.85 13.61,-3.94 28.77,-13.23 30.23,-28.71 0.12,-5.55 3.53,-11.71 0.96,-16.95 -1.01,-1.46 -2.87,-2.25 -4.63,-2.03 z"
           id="path2810" />
      </g>
      <g
         style="fill-rule:evenodd"
         transform="matrix(0.32047648,0,0,0.32047648,88.672373,250.34776)"
         id="g2812">
        <path
           style="fill:#008080"
           inkscape:connector-curvature="0"
           d="M 241.89,431.12 C 188.29,508.65 134,533.13 122.82,552.49 c -11.19,19.39 -5.21,50.65 17.01,63.48 22.21,12.82 53.78,-0.22 63.47,-17.01 9.63,-16.67 1.5,-80.78 38.59,-167.84 z"
           id="path2814" />
        <path
           inkscape:connector-curvature="0"
           style="fill:url(#linearGradient5555)"
           d="m 201.47,489.06 c -1.2,0.04 -2.34,0.53 -3.19,1.38 -13.66,13.7 -28.18,26.54 -43.37,38.44 -0.06,0.04 -0.11,0.08 -0.16,0.12 -10.41,8.85 -20.99,15.63 -27.91,25.66 -0.1,0.14 -0.19,0.28 -0.28,0.43 -4.37,8.1 -5.83,17.92 -3.84,26.75 0.08,0.35 0.19,0.68 0.34,1 0.86,1.8 2.1,3.11 3.6,4.07 1.49,0.96 3.45,1.96 6.25,0.93 0.18,-0.06 0.36,-0.13 0.53,-0.22 l 0.06,-0.03 v -0.03 c 11.21,-4.14 19.52,-14.01 28.22,-24 0.03,-0.04 0.06,-0.08 0.09,-0.12 16.91,-20.92 31.15,-43.71 43.97,-67.41 0.81,-1.49 0.76,-3.29 -0.13,-4.74 -0.89,-1.44 -2.49,-2.29 -4.18,-2.23 z"
           id="path2816" />
        <path
           inkscape:connector-curvature="0"
           style="fill:url(#linearGradient5557)"
           d="m 196.27,558.65 c -5.75,1.43 -6.49,9.12 -10.26,12.97 -6.46,10.58 -15.08,19.69 -24.05,27.87 -2.86,4.72 3.35,9.66 7.75,6.85 13.61,-3.94 28.77,-13.23 30.23,-28.71 0.12,-5.55 3.53,-11.71 0.96,-16.95 -1.01,-1.46 -2.87,-2.25 -4.63,-2.03 z"
           id="path2818" />
      </g>
      <g
         style="fill-rule:evenodd"
         transform="matrix(0.45733425,0,0,0.45733425,229.16435,85.906657)"
         id="g2820">
        <path
           style="fill:#008080"
           inkscape:connector-curvature="0"
           d="M 241.89,431.12 C 188.29,508.65 134,533.13 122.82,552.49 c -11.19,19.39 -5.21,50.65 17.01,63.48 22.21,12.82 53.78,-0.22 63.47,-17.01 9.63,-16.67 1.5,-80.78 38.59,-167.84 z"
           id="path2822" />
        <path
           inkscape:connector-curvature="0"
           style="fill:url(#linearGradient5559)"
           d="m 201.47,489.06 c -1.2,0.04 -2.34,0.53 -3.19,1.38 -13.66,13.7 -28.18,26.54 -43.37,38.44 -0.06,0.04 -0.11,0.08 -0.16,0.12 -10.41,8.85 -20.99,15.63 -27.91,25.66 -0.1,0.14 -0.19,0.28 -0.28,0.43 -4.37,8.1 -5.83,17.92 -3.84,26.75 0.08,0.35 0.19,0.68 0.34,1 0.86,1.8 2.1,3.11 3.6,4.07 1.49,0.96 3.45,1.96 6.25,0.93 0.18,-0.06 0.36,-0.13 0.53,-0.22 l 0.06,-0.03 v -0.03 c 11.21,-4.14 19.52,-14.01 28.22,-24 0.03,-0.04 0.06,-0.08 0.09,-0.12 16.91,-20.92 31.15,-43.71 43.97,-67.41 0.81,-1.49 0.76,-3.29 -0.13,-4.74 -0.89,-1.44 -2.49,-2.29 -4.18,-2.23 z"
           id="path2824" />
        <path
           inkscape:connector-curvature="0"
           style="fill:url(#linearGradient5561)"
           d="m 196.27,558.65 c -5.75,1.43 -6.49,9.12 -10.26,12.97 -6.46,10.58 -15.08,19.69 -24.05,27.87 -2.86,4.72 3.35,9.66 7.75,6.85 13.61,-3.94 28.77,-13.23 30.23,-28.71 0.12,-5.55 3.53,-11.71 0.96,-16.95 -1.01,-1.46 -2.87,-2.25 -4.63,-2.03 z"
           id="path2826" />
      </g>
    </g>
  </g>
</svg>
